<svg width="45" height="50" viewBox="0 0 45 50" fill="none" xmlns="http://www.w3.org/2000/svg">
<path fill-rule="evenodd" clip-rule="evenodd" d="M40 5H29.55C28.5 2.1 25.75 0 22.5 0C19.25 0 16.5 2.1 15.45 5H5C2.25 5 0 7.25 0 10V45C0 47.75 2.25 50 5 50H40C42.75 50 45 47.75 45 45V10C45 7.25 42.75 5 40 5ZM22.501 5C23.876 5 25.001 6.125 25.001 7.5C25.001 8.875 23.876 10 22.501 10C21.126 10 20.001 8.875 20.001 7.5C20.001 6.125 21.126 5 22.501 5ZM7.49902 30.001L17.499 40.001L37.499 20.001L33.974 16.451L17.499 32.926L11.024 26.476L7.49902 30.001Z" fill="url(#paint0_linear_2503_642)"/>
<defs>
<linearGradient id="paint0_linear_2503_642" x1="8" y1="6.66667" x2="40.4764" y2="42.7579" gradientUnits="userSpaceOnUse">
<stop stop-color="#72CFFF"/>
<stop offset="1" stop-color="#1595FF"/>
</linearGradient>
</defs>
</svg>
