<svg width="50" height="50" viewBox="0 0 50 50" fill="none" xmlns="http://www.w3.org/2000/svg">
<path d="M44.0476 23.8095H40.4762V14.2857C40.4762 11.6667 38.3333 9.52381 35.7143 9.52381H26.1905V5.95238C26.1905 2.66667 23.5238 0 20.2381 0C16.9524 0 14.2857 2.66667 14.2857 5.95238V9.52381H4.7619C2.14286 9.52381 0.0238095 11.6667 0.0238095 14.2857V23.3333H3.57143C7.11905 23.3333 10 26.2143 10 29.7619C10 33.3095 7.11905 36.1905 3.57143 36.1905H0V45.2381C0 47.8571 2.14286 50 4.7619 50H13.8095V46.4286C13.8095 42.881 16.6905 40 20.2381 40C23.7857 40 26.6667 42.881 26.6667 46.4286V50H35.7143C38.3333 50 40.4762 47.8571 40.4762 45.2381V35.7143H44.0476C47.3333 35.7143 50 33.0476 50 29.7619C50 26.4762 47.3333 23.8095 44.0476 23.8095Z" fill="url(#paint0_linear_2503_648)"/>
<defs>
<linearGradient id="paint0_linear_2503_648" x1="8.88889" y1="6.66667" x2="40.8333" y2="46.1111" gradientUnits="userSpaceOnUse">
<stop stop-color="#95E294"/>
<stop offset="1" stop-color="#0ACD88"/>
</linearGradient>
</defs>
</svg>
