<svg width="60" height="42" viewBox="0 0 60 42" fill="none" xmlns="http://www.w3.org/2000/svg">
<path d="M30 5.29688C15.8793 5.30848 4.44142 16.7651 4.45313 30.8858C4.45489 32.98 4.71388 35.0659 5.22423 37.0967H54.7758C58.2177 23.4019 49.9059 9.50976 36.2109 6.06785C34.1801 5.55762 32.0941 5.29863 30 5.29688ZM30 34.4625C28.0014 34.4632 26.3808 32.8435 26.3801 30.8449C26.3794 28.8463 27.999 27.2257 29.9977 27.225C31.9963 27.2243 33.6169 28.8439 33.6176 30.8426C33.6176 30.8429 33.6176 30.8434 33.6176 30.8437C33.6176 32.8419 31.9982 34.4619 30 34.4625Z" fill="#A4FCC4"/>
<path d="M30 0.84375C13.4203 0.84375 1.36508e-05 14.2617 1.36508e-05 30.8437C-0.0032676 34.278 0.585013 37.6872 1.73908 40.9219L1.96056 41.5453H58.0394L58.2609 40.9219C59.415 37.6872 60.0033 34.278 60 30.8437C60 14.2641 46.582 0.84375 30 0.84375ZM56.7094 39.675H3.29064C2.34974 36.8258 1.87185 33.8442 1.87501 30.8437C1.87501 15.3 14.4539 2.71875 30 2.71875C45.5461 2.71875 58.125 15.2976 58.125 30.8437C58.1283 33.8442 57.6503 36.8258 56.7094 39.675Z" fill="#304FFE"/>
<path d="M30.9375 6.72656H29.0625V12.7559H30.9375V6.72656Z" fill="#304FFE"/>
<path d="M43.4554 18.7164L47.7188 14.4531L46.3929 13.1273L42.1296 17.3906L43.4554 18.7164Z" fill="#304FFE"/>
<path d="M54.1191 29.9062H48.0898V31.7812H54.1191V29.9062Z" fill="#304FFE"/>
<path d="M16.5453 18.7164L17.8711 17.3906L13.6078 13.1273L12.282 14.4531L16.5453 18.7164Z" fill="#304FFE"/>
<path d="M11.9102 29.9062H5.88086V31.7812H11.9102V29.9062Z" fill="#304FFE"/>
<path d="M38.717 20.8047L32.4885 27.0332C30.3761 25.6516 27.5437 26.2439 26.162 28.3564C24.7804 30.4688 25.3728 33.3012 27.4852 34.6828C29.5976 36.0645 32.43 35.4721 33.8117 33.3597C34.8048 31.8413 34.8057 29.8791 33.8139 28.3598L40.0436 22.1301L38.717 20.8047ZM30.0006 33.5266C28.5204 33.5266 27.3205 32.3267 27.3205 30.8465C27.3205 29.3663 28.5204 28.1664 30.0006 28.1664C31.4808 28.1664 32.6807 29.3663 32.6807 30.8465C32.6794 32.3261 31.4802 33.5253 30.0006 33.5266Z" fill="#304FFE"/>
</svg>
