<svg width="60" height="60" viewBox="0 0 60 60" fill="none" xmlns="http://www.w3.org/2000/svg">
<path d="M20.3344 22.9062H4.45312V37.0988H20.3344V22.9062Z" fill="#C6D4FF"/>
<path d="M18.3027 32.1953H6.48438V34.0703H18.3027V32.1953Z" fill="#304FFE"/>
<path d="M18.3027 26.0469H6.48438V27.9219H18.3027V26.0469Z" fill="#304FFE"/>
<path d="M60 17.6715V6.14844H48.4781V10.9719H37.6242V29.0609H24.7875V18.4484H0V41.5484H24.7875V30.9359H37.6242V49.025H48.4781V53.8484H60V42.3254H48.4781V47.15H39.4992V30.9359H48.4781V35.7594H60V24.2375H48.4781V29.0609H39.4992V12.8469H48.4781V17.6715H60ZM22.9125 39.6734H1.875V20.3234H22.9125V39.6734ZM50.3531 44.2004H58.125V51.9734H50.3531V44.2004ZM50.3531 26.1125H58.125V33.8844H50.3531V26.1125ZM50.3531 8.02344H58.125V15.7965H50.3531V8.02344Z" fill="#304FFE"/>
</svg>
