<svg width="55" height="55" viewBox="0 0 55 55" fill="none" xmlns="http://www.w3.org/2000/svg">
<path d="M22.075 36.4422C19.1331 34.3312 17.3868 30.9335 17.3828 27.3126V11.8438H37.6113V27.3126C37.6073 30.9335 35.8611 34.3312 32.9191 36.4422L27.4993 40.3755L22.075 36.4422Z" fill="#FFC9F9"/>
<path d="M5.54297 0V27.3105C5.5492 34.7479 9.13408 41.7276 15.1756 46.0652L27.501 55L39.82 46.0673C45.8636 41.73 49.4509 34.7495 49.459 27.3105V0H5.54297ZM47.7466 27.3105C47.7381 34.198 44.4163 40.6606 38.8203 44.6759L27.501 52.8851L16.1816 44.676C10.5857 40.6606 7.26387 34.198 7.25538 27.3106V1.71241H47.7466V27.3105Z" fill="#304FFE"/>
<path d="M19.7075 39.744L27.5014 45.3962L35.2921 39.7462C39.3002 36.8708 41.6795 32.2422 41.6849 27.3094V7.77344H13.3223V27.3094C13.3267 32.2402 15.7028 36.8676 19.7075 39.744ZM39.9725 9.48596V23.5068L27.5014 26.6266L15.0304 23.5089V9.48811L39.9725 9.48596ZM15.0347 25.2737L27.5014 28.3915L39.9725 25.2737V27.3072C39.9672 31.6894 37.8527 35.8013 34.2913 38.3547L27.5014 43.2782L20.7115 38.3548C17.1539 35.8004 15.0428 31.6902 15.039 27.3106L15.0347 25.2737Z" fill="#304FFE"/>
</svg>
