<svg width="29" height="29" viewBox="0 0 29 29" fill="none" xmlns="http://www.w3.org/2000/svg">
<path fill-rule="evenodd" clip-rule="evenodd" d="M20.3734 5.92045C19.5657 4.73199 18.6426 3.6243 17.6041 2.63199C17.2003 2.23969 16.5195 2.60892 16.6349 3.16276C16.8541 4.24738 17.0849 5.67815 17.0849 6.95892C17.0849 9.33584 15.5272 11.2628 13.1503 11.2628C11.3734 11.2628 9.91953 10.1897 9.28492 8.65507C9.16953 8.4243 9.12338 8.28584 9.05415 8.03199C8.92722 7.54738 8.29261 7.39738 8.01569 7.8243C7.80799 8.13584 7.61184 8.44738 7.42722 8.78199C6.05415 11.1358 5.26953 13.882 5.26953 16.8128C5.26953 21.9128 9.4003 26.0435 14.5003 26.0435C19.6003 26.0435 23.7311 21.9128 23.7311 16.8128C23.7311 12.7858 22.4849 9.04738 20.3734 5.92045ZM14.1657 22.582C12.1118 22.582 10.4503 20.9666 10.4503 18.9589C10.4503 17.0897 11.6618 15.7743 13.6926 15.3589C15.3888 15.0128 17.1311 14.2858 18.3426 13.1435C18.6657 12.8435 19.1965 12.982 19.2888 13.4089C19.5541 14.5858 19.6926 15.8089 19.6926 17.0435C19.7041 20.1012 17.2234 22.582 14.1657 22.582Z" fill="#F9C45C"/>
</svg>
