<svg width="25" height="25" viewBox="0 0 25 25" fill="none" xmlns="http://www.w3.org/2000/svg">
<path d="M24.2676 0.953125H0.732422C0.32793 0.953125 0 1.28105 0 1.68555V19.459C0 19.8635 0.32793 20.1914 0.732422 20.1914H8.10547V22.584H6.29883C5.89434 22.584 5.56641 22.9119 5.56641 23.3164C5.56641 23.7209 5.89434 24.0488 6.29883 24.0488H18.7012C19.1057 24.0488 19.4336 23.7209 19.4336 23.3164C19.4336 22.9119 19.1057 22.584 18.7012 22.584H16.8945V20.1914H24.2676C24.6721 20.1914 25 19.8635 25 19.459V1.68555C25 1.28105 24.6721 0.953125 24.2676 0.953125ZM23.5352 3.88281H4.39453V2.41797H23.5352V3.88281ZM1.46484 2.41797H2.92969V18.7266H1.46484V2.41797ZM15.4297 22.584H9.57031V20.1914H15.4297V22.584ZM4.39453 18.7266V5.34766H23.5352V18.7266H4.39453Z" fill="#FF8947"/>
<path d="M15.7227 7.54492C15.7227 7.14043 15.3947 6.8125 14.9902 6.8125H6.64062C6.23613 6.8125 5.9082 7.14043 5.9082 7.54492C5.9082 7.94941 6.23613 8.27734 6.64062 8.27734H14.9902C15.3947 8.27734 15.7227 7.94946 15.7227 7.54492Z" fill="#FF8947"/>
<path d="M13.0215 11.207H15.0149C15.4194 11.207 15.7474 10.8791 15.7474 10.4746C15.7474 10.0701 15.4194 9.74219 15.0149 9.74219H13.0215C12.617 9.74219 12.2891 10.0701 12.2891 10.4746C12.2891 10.8791 12.617 11.207 13.0215 11.207Z" fill="#FF8947"/>
<path d="M20.166 13.4043C20.166 12.9998 19.8381 12.6719 19.4336 12.6719H13.0371C12.6326 12.6719 12.3047 12.9998 12.3047 13.4043C12.3047 13.8088 12.6326 14.1367 13.0371 14.1367H19.4336C19.8381 14.1367 20.166 13.8088 20.166 13.4043Z" fill="#FF8947"/>
<path d="M21.3383 15.6016H18.2207C17.8162 15.6016 17.4883 15.9295 17.4883 16.334C17.4883 16.7385 17.8162 17.0664 18.2207 17.0664H21.3383C21.7428 17.0664 22.0707 16.7385 22.0707 16.334C22.0707 15.9295 21.7428 15.6016 21.3383 15.6016Z" fill="#FF8947"/>
</svg>
