<svg width="55" height="55" viewBox="0 0 55 55" fill="none" xmlns="http://www.w3.org/2000/svg">
<path d="M27.5008 42.0719C35.5503 42.0719 42.0758 35.5464 42.0758 27.4969C42.0758 19.4473 35.5503 12.9219 27.5008 12.9219C19.4512 12.9219 12.9258 19.4473 12.9258 27.4969C12.9258 35.5464 19.4512 42.0719 27.5008 42.0719Z" fill="#D8CDFF"/>
<path d="M27.5 0C12.302 0 0 12.2998 0 27.5C0 42.7002 12.2998 55 27.5 55C42.7002 55 55 42.7002 55 27.5C55 12.2998 42.7002 0 27.5 0ZM53.2651 26.6406H46.1366C45.6983 17.036 37.964 9.30166 28.3594 8.86338V1.73486C41.8451 2.17314 52.8215 13.0034 53.2651 26.6406ZM44.4157 28.3594C43.986 37.0165 37.0165 43.9817 28.3594 44.4157V38.6644H26.6406V44.4157C17.9835 43.986 11.0183 37.0165 10.5843 28.3594H16.3356V26.6406H10.5843C11.014 17.9835 17.9835 11.0183 26.6406 10.5843V16.3356H28.3594V10.5843C37.0165 11.014 43.9817 17.9835 44.4157 26.6406H38.6644V28.3594H44.4157ZM26.6406 1.73486V8.86338C17.036 9.30166 9.30166 17.036 8.86338 26.6406H1.73486C2.17314 13.1549 13.0034 2.17852 26.6406 1.73486ZM1.73486 28.3594H8.86338C9.30166 37.964 17.036 45.6983 26.6406 46.1366V53.2651C13.1549 52.8269 2.17852 42.002 1.73486 28.3594ZM28.3594 53.2651V46.1366C37.964 45.6983 45.6983 37.964 46.1366 28.3594H53.2651C52.8269 41.8451 42.002 52.8215 28.3594 53.2651Z" fill="#304FFE"/>
<path d="M28.6816 26.3203H26.3184V28.6836H28.6816V26.3203Z" fill="#304FFE"/>
</svg>
