<svg width="29" height="29" viewBox="0 0 29 29" fill="none" xmlns="http://www.w3.org/2000/svg">
<path fill-rule="evenodd" clip-rule="evenodd" d="M23.7321 5.27344H5.27058C4.00135 5.27344 2.97443 6.3119 2.97443 7.58113L2.96289 21.4273C2.96289 22.6965 4.00135 23.735 5.27058 23.735H23.7321C25.0014 23.735 26.0398 22.6965 26.0398 21.4273V7.58113C26.0398 6.3119 25.0014 5.27344 23.7321 5.27344ZM23.2706 10.1773L15.1129 15.2773C14.7437 15.5081 14.259 15.5081 13.8898 15.2773L5.73212 10.1773C5.44366 9.99268 5.27058 9.68114 5.27058 9.34652C5.27058 8.57345 6.11289 8.11191 6.77058 8.51575L14.5014 13.3504L22.2321 8.51575C22.8898 8.11191 23.7321 8.57345 23.7321 9.34652C23.7321 9.68114 23.559 9.99268 23.2706 10.1773Z" fill="#FF6D43"/>
</svg>
