<svg width="30" height="30" viewBox="0 0 30 30" fill="none" xmlns="http://www.w3.org/2000/svg">
<g clip-path="url(#clip0_2592_16452)">
<path d="M9.21094 18.1875V4.5625C9.21094 3.73537 8.53806 3.0625 7.71094 3.0625H4.46094C3.63381 3.0625 2.96094 3.73537 2.96094 4.5625V5.61087C2.96094 5.887 3.18481 6.11087 3.46094 6.11087C3.73706 6.11087 3.96094 5.887 3.96094 5.61087V4.5625C3.96094 4.28681 4.18525 4.0625 4.46094 4.0625H7.71094C7.98663 4.0625 8.21094 4.28681 8.21094 4.5625V13.9375H5.62019C5.34406 13.9375 5.12019 14.1614 5.12019 14.4375C5.12019 14.7136 5.34406 14.9375 5.62019 14.9375H8.21094V18.1875C8.21094 18.4632 7.98663 18.6875 7.71094 18.6875H4.46094C4.18525 18.6875 3.96094 18.4632 3.96094 18.1875V8.8125H6.46494C6.74106 8.8125 6.96494 8.58862 6.96494 8.3125C6.96494 8.03637 6.74106 7.8125 6.46494 7.8125H3.46094C3.18481 7.8125 2.96094 8.03637 2.96094 8.3125V18.1875C2.96094 19.0146 3.63381 19.6875 4.46094 19.6875H7.71094C8.538 19.6875 9.21094 19.0146 9.21094 18.1875Z" fill="#008181"/>
<path d="M29.5294 17.1186L26.2182 10.25C25.7394 9.25663 24.5415 8.83806 23.5482 9.31694L22.3234 9.90738L23.0655 8.76813C23.6687 7.84194 23.4076 6.60406 22.4812 6.00075L16.0919 1.83913C15.1681 1.23738 13.9264 1.49938 13.3245 2.4235L13.0202 2.89069C12.8696 3.12206 12.9349 3.43181 13.1664 3.58256C13.3977 3.73325 13.7075 3.66788 13.8582 3.43644L14.1624 2.96925C14.4633 2.50725 15.0841 2.37613 15.5462 2.67706L21.9355 6.8385C22.3987 7.14019 22.5293 7.759 22.2277 8.22219L20.584 10.7458C10.5406 15.5874 11.165 15.2815 11.1073 15.3229C11.0029 15.3976 10.9291 15.5121 10.9064 15.6427C10.8941 15.7126 10.8984 15.1469 10.8984 24.1874C10.8984 26.8411 8.73956 28.9999 6.08594 28.9999C3.43231 28.9999 1.27344 26.8411 1.27344 24.1874V2C1.27344 1.44856 1.72206 1 2.27344 1H9.89844C10.4498 1 10.8984 1.44856 10.8984 2V12.4173C10.8984 12.6934 11.1223 12.9173 11.3984 12.9173C11.6746 12.9173 11.8984 12.6934 11.8984 12.4173V11.3697L12.6965 10.1444L14.4771 11.3042C14.5614 11.3591 14.656 11.3853 14.7496 11.3853C15.246 11.3853 15.4386 10.737 15.0229 10.4662L13.2423 9.30644L15.0161 6.58313C15.1666 6.352 15.4759 6.28588 15.7079 6.43706L18.4311 8.21081C18.6628 8.36163 18.7281 8.671 18.5772 8.90269L17.9556 9.85713C17.8049 10.0885 17.8703 10.3983 18.1017 10.549C18.3331 10.6998 18.6428 10.6343 18.7935 10.4029L19.4151 9.44844C19.8676 8.75375 19.6717 7.82531 18.9769 7.37288L16.2536 5.59919C15.5591 5.14675 14.6306 5.34269 14.1781 6.03744L11.8984 9.53738V2C11.8984 0.897188 11.0012 0 9.89844 0H2.27344C1.17062 0 0.273438 0.897188 0.273438 2V24.1875C0.273438 27.3925 2.88094 30 6.08594 30C9.18187 30 11.7199 27.5669 11.8892 24.5126C12.2214 24.5821 12.5547 24.5383 12.8477 24.397L25.1211 18.4804C25.8678 18.1205 26.1811 17.2248 25.8209 16.4779L24.4096 13.5503C24.0504 12.8052 23.1519 12.4914 22.4071 12.8504L13.5117 17.1386C13.2629 17.2584 13.1585 17.5573 13.2784 17.8061L14.6437 20.6382C14.7636 20.8869 15.0624 20.9914 15.3112 20.8714C15.5599 20.7516 15.6644 20.4527 15.5445 20.2039L14.3964 17.8222L22.8412 13.7512C23.0897 13.6315 23.3891 13.7361 23.5089 13.9844L24.9201 16.9121C25.0401 17.161 24.9358 17.4596 24.6869 17.5796L21.7592 18.9909L20.7637 16.9258C20.6438 16.6771 20.3449 16.5726 20.0962 16.6926C19.8475 16.8124 19.7431 17.1113 19.863 17.3601L20.8584 19.4251L12.4134 23.4963C12.2429 23.5784 12.0443 23.5553 11.8984 23.4473V16.043L23.9825 10.2177C24.4792 9.97819 25.0781 10.1876 25.3176 10.6843L28.6287 17.5528C28.8681 18.0495 28.6588 18.6484 28.1621 18.8879L14.6515 25.4009C14.4027 25.5208 14.2983 25.8196 14.4182 26.0684C14.5044 26.2471 14.683 26.3514 14.869 26.3514C15.0457 26.3514 14.1586 26.7487 28.5963 19.7887C29.5897 19.3098 30.0082 18.1119 29.5294 17.1186Z" fill="#008181"/>
<path d="M6.08593 25.5625C5.32775 25.5625 4.71094 24.9457 4.71094 24.1875C4.71094 23.9114 4.48706 23.6875 4.21094 23.6875C3.93481 23.6875 3.71094 23.9114 3.71094 24.1875C3.71094 25.4971 4.77637 26.5625 6.08593 26.5625C7.3955 26.5625 8.46093 25.4971 8.46093 24.1875C8.46093 22.8779 7.3955 21.8125 6.08593 21.8125C5.80981 21.8125 5.58593 22.0364 5.58593 22.3125C5.58593 22.5886 5.80981 22.8125 6.08593 22.8125C6.84412 22.8125 7.46093 23.4293 7.46093 24.1875C7.46093 24.9457 6.84406 25.5625 6.08593 25.5625Z" fill="#008181"/>
</g>
<defs>
<clipPath id="clip0_2592_16452">
<rect width="30" height="30" fill="white"/>
</clipPath>
</defs>
</svg>
