<svg width="28" height="28" viewBox="0 0 28 28" fill="none" xmlns="http://www.w3.org/2000/svg">
<path d="M6.1537 5.21094C5.90077 5.21094 5.66301 5.30942 5.48378 5.48843C5.11464 5.85779 5.11485 6.45871 5.48399 6.82785C5.66301 7.00687 5.90077 7.10535 6.1537 7.10535C6.40663 7.10535 6.64461 7.00687 6.82362 6.82785C7.19276 6.45871 7.19276 5.85779 6.82341 5.48822C6.64439 5.30942 6.40663 5.21094 6.1537 5.21094Z" fill="#EC9B00"/>
<path d="M24.3319 9.4494L27.997 0L18.5476 3.66513L14.2264 7.9863L6.24634 0.00640872L0 6.25275L7.9801 14.2328L2.07983 20.1331L0.751953 21.4608C0.27301 21.9399 0.00897214 22.577 0.00897214 23.2546C0.00897214 23.9322 0.27301 24.569 0.751953 25.0484L2.94864 27.2451C3.44318 27.7396 4.0928 27.9868 4.74243 27.9868C5.39206 27.9868 6.04169 27.7396 6.53622 27.2451L13.7644 20.0169L21.7473 28L27.9936 21.7537L20.0107 13.7706L24.3319 9.4494ZM6.7114 22.4454L21.3177 7.83911L22.4702 8.99161L7.86389 23.5979L6.7114 22.4454ZM23.3202 7.52231L20.4747 4.67685L25.1234 2.87387L23.3202 7.52231ZM7.991 11.9244L9.51135 10.4041L8.35159 9.24432L6.83124 10.7647L2.31952 6.25275L6.24634 2.32571L13.0667 9.14606L9.13986 13.0731L7.991 11.9244ZM19.0054 5.52686L20.1579 6.67935L5.55185 21.2856L4.39914 20.1331L19.0054 5.52686ZM5.37668 26.0853C5.20728 26.2547 4.98212 26.3478 4.74243 26.3478C4.50296 26.3478 4.2778 26.2547 4.1084 26.0853L1.91171 23.8886C1.74252 23.7192 1.64917 23.494 1.64917 23.2546C1.64917 23.0151 1.74252 22.7897 1.91171 22.6205L3.23959 21.2927L6.70435 24.7576L5.37668 26.0853ZM25.6743 21.7537L21.7473 25.6807L19.5523 23.4857L21.0726 21.9654L19.9129 20.8056L18.3927 22.326L17.24 21.1735L18.7604 19.6531L17.6006 18.4933L16.0803 20.0137L14.9239 18.8574L18.851 14.9303L25.6743 21.7537Z" fill="#EC9B00"/>
</svg>
