<svg width="29" height="29" viewBox="0 0 29 29" fill="none" xmlns="http://www.w3.org/2000/svg">
<path fill-rule="evenodd" clip-rule="evenodd" d="M21.4234 9.88942H20.2695V7.58173C20.2695 4.39712 17.6849 1.8125 14.5003 1.8125C11.3157 1.8125 8.73107 4.39712 8.73107 7.58173V9.88942H7.57722C6.30799 9.88942 5.26953 10.9279 5.26953 12.1971V23.7356C5.26953 25.0048 6.30799 26.0433 7.57722 26.0433H21.4234C22.6926 26.0433 23.7311 25.0048 23.7311 23.7356V12.1971C23.7311 10.9279 22.6926 9.88942 21.4234 9.88942ZM14.5003 20.274C13.2311 20.274 12.1926 19.2356 12.1926 17.9663C12.1926 16.6971 13.2311 15.6587 14.5003 15.6587C15.7695 15.6587 16.808 16.6971 16.808 17.9663C16.808 19.2356 15.7695 20.274 14.5003 20.274ZM11.0388 9.88942V7.58173C11.0388 5.66635 12.5849 4.12019 14.5003 4.12019C16.4157 4.12019 17.9618 5.66635 17.9618 7.58173V9.88942H11.0388Z" fill="#6AC75A"/>
</svg>
