<svg width="29" height="29" viewBox="0 0 29 29" fill="none" xmlns="http://www.w3.org/2000/svg">
<path fill-rule="evenodd" clip-rule="evenodd" d="M19.6937 14.4988C21.286 14.4988 22.5667 13.2065 22.5667 11.6142C22.5667 10.0219 21.286 8.72957 19.6937 8.72957C18.1014 8.72957 16.809 10.0219 16.809 11.6142C16.809 13.2065 18.1014 14.4988 19.6937 14.4988ZM11.0398 13.345C12.9552 13.345 14.4898 11.7988 14.4898 9.88341C14.4898 7.96803 12.9552 6.42188 11.0398 6.42188C9.12443 6.42188 7.57828 7.96803 7.57828 9.88341C7.57828 11.7988 9.12443 13.345 11.0398 13.345ZM19.6937 16.8065C17.5821 16.8065 13.3475 17.868 13.3475 19.9796V21.4219C13.3475 22.0565 13.8667 22.5757 14.5014 22.5757H24.886C25.5206 22.5757 26.0398 22.0565 26.0398 21.4219V19.9796C26.0398 17.868 21.8052 16.8065 19.6937 16.8065ZM11.0398 15.6526C8.35135 15.6526 2.96289 17.0026 2.96289 19.6911V21.4219C2.96289 22.0565 3.48212 22.5757 4.11674 22.5757H11.0398V19.9796C11.0398 18.9988 11.4206 17.2796 13.7744 15.9757C12.7706 15.768 11.8014 15.6526 11.0398 15.6526Z" fill="#465DFF"/>
</svg>
