<svg width="29" height="29" viewBox="0 0 29 29" fill="none" xmlns="http://www.w3.org/2000/svg">
<path fill-rule="evenodd" clip-rule="evenodd" d="M26.0394 11.0445H20.5124L15.4471 3.4637C14.9855 2.78293 13.9817 2.78293 13.5317 3.4637L8.46629 11.0445H2.96244C2.32782 11.0445 1.80859 11.5637 1.80859 12.1983C1.80859 12.3022 1.82013 12.406 1.85475 12.5099L4.78552 23.206C5.0509 24.1752 5.93936 24.8906 7.0009 24.8906H22.0009C23.0624 24.8906 23.9509 24.1752 24.2278 23.206L27.1586 12.5099L27.1932 12.1983C27.1932 11.5637 26.674 11.0445 26.0394 11.0445ZM14.4894 6.18678L17.7317 11.0445H11.2471L14.4894 6.18678ZM14.5009 20.2752C13.2317 20.2752 12.1932 19.2368 12.1932 17.9675C12.1932 16.6983 13.2317 15.6598 14.5009 15.6598C15.7701 15.6598 16.8086 16.6983 16.8086 17.9675C16.8086 19.2368 15.7701 20.2752 14.5009 20.2752Z" fill="#783BFF"/>
</svg>
