<svg width="48" height="48" viewBox="0 0 48 48" fill="none" xmlns="http://www.w3.org/2000/svg">
<circle cx="24" cy="24" r="24" fill="url(#paint0_linear_2744_74)"/>
<path fill-rule="evenodd" clip-rule="evenodd" d="M16.2748 13.375H20.0401C21.6109 13.375 22.8697 14.6561 22.8697 16.2279V20.0255C22.8697 21.6074 21.6109 22.8773 20.0401 22.8773H16.2748C14.7153 22.8773 13.4453 21.6074 13.4453 20.0255V16.2279C13.4453 14.6561 14.7153 13.375 16.2748 13.375ZM16.2748 25.1053H20.0401C21.6109 25.1053 22.8697 26.3764 22.8697 27.9583V31.7558C22.8697 33.3266 21.6109 34.6076 20.0401 34.6076H16.2748C14.7153 34.6076 13.4453 33.3266 13.4453 31.7558V27.9583C13.4453 26.3764 14.7153 25.1053 16.2748 25.1053ZM31.6925 13.375H27.9272C26.3565 13.375 25.0977 14.6561 25.0977 16.2279V20.0255C25.0977 21.6074 26.3565 22.8773 27.9272 22.8773H31.6925C33.2521 22.8773 34.522 21.6074 34.522 20.0255V16.2279C34.522 14.6561 33.2521 13.375 31.6925 13.375ZM27.9272 25.1053H31.6925C33.2521 25.1053 34.522 26.3764 34.522 27.9583V31.7559C34.522 33.3266 33.2521 34.6077 31.6925 34.6077H27.9272C26.3565 34.6077 25.0977 33.3266 25.0977 31.7559V27.9583C25.0977 26.3764 26.3565 25.1053 27.9272 25.1053Z" fill="url(#paint1_linear_2744_74)"/>
<defs>
<linearGradient id="paint0_linear_2744_74" x1="3.2" y1="9.06667" x2="43.2" y2="48" gradientUnits="userSpaceOnUse">
<stop stop-color="#FE4C1C"/>
<stop offset="1" stop-color="#FE6D1C"/>
</linearGradient>
<linearGradient id="paint1_linear_2744_74" x1="24.5406" y1="13.375" x2="24.5406" y2="35.7217" gradientUnits="userSpaceOnUse">
<stop stop-color="white"/>
<stop offset="1" stop-color="#FEDFD0"/>
</linearGradient>
</defs>
</svg>
