<svg width="48" height="48" viewBox="0 0 48 48" fill="none" xmlns="http://www.w3.org/2000/svg">
<circle cx="24" cy="24" r="24" fill="url(#paint0_linear_2744_87)"/>
<path fill-rule="evenodd" clip-rule="evenodd" d="M33.1656 26.3169C33.577 26.5354 33.8943 26.8804 34.1176 27.2254C34.5524 27.9383 34.5171 28.8123 34.0941 29.5828L33.2714 30.9628C32.8365 31.6988 32.0256 32.1588 31.1912 32.1588C30.7799 32.1588 30.3215 32.0438 29.9455 31.8138C29.6399 31.6183 29.2873 31.5493 28.9113 31.5493C27.7478 31.5493 26.7723 32.5038 26.7371 33.6423C26.7371 34.9648 25.6558 35.9998 24.3043 35.9998H22.706C21.3427 35.9998 20.2615 34.9648 20.2615 33.6423C20.238 32.5038 19.2625 31.5493 18.099 31.5493C17.7112 31.5493 17.3586 31.6183 17.0648 31.8138C16.6888 32.0438 16.2187 32.1588 15.8191 32.1588C14.9729 32.1588 14.162 31.6988 13.7272 30.9628L12.9162 29.5828C12.4814 28.8353 12.4579 27.9383 12.8927 27.2254C13.0808 26.8804 13.4333 26.5354 13.8329 26.3169C14.162 26.1559 14.3735 25.8914 14.5733 25.5809C15.161 24.5919 14.8084 23.2924 13.8094 22.7059C12.6459 22.0504 12.2699 20.5899 12.9397 19.4514L13.7272 18.0944C14.4088 16.956 15.8661 16.5535 17.0413 17.2205C18.0638 17.7725 19.3918 17.4045 19.9912 16.427C20.1792 16.105 20.285 15.76 20.2615 15.415C20.238 14.9665 20.3673 14.541 20.5906 14.196C21.0254 13.483 21.8128 13.023 22.6707 13H24.3278C25.1975 13 25.9849 13.483 26.4197 14.196C26.6313 14.541 26.7723 14.9665 26.7371 15.415C26.7136 15.76 26.8193 16.105 27.0074 16.427C27.6067 17.4045 28.9348 17.7725 29.969 17.2205C31.1325 16.5535 32.6015 16.956 33.2714 18.0944L34.0588 19.4514C34.7404 20.5899 34.3644 22.0504 33.1891 22.7059C32.1902 23.2924 31.8376 24.5919 32.437 25.5809C32.625 25.8914 32.8365 26.1559 33.1656 26.3169ZM20.1797 24.5114C20.1797 26.3168 21.6722 27.7543 23.5174 27.7543C25.3625 27.7543 26.8198 26.3168 26.8198 24.5114C26.8198 22.7059 25.3625 21.2569 23.5174 21.2569C21.6722 21.2569 20.1797 22.7059 20.1797 24.5114Z" fill="url(#paint1_linear_2744_87)"/>
<defs>
<linearGradient id="paint0_linear_2744_87" x1="3.2" y1="9.06667" x2="43.2" y2="48" gradientUnits="userSpaceOnUse">
<stop stop-color="#DE1CFE"/>
<stop offset="1" stop-color="#FE1C1C"/>
</linearGradient>
<linearGradient id="paint1_linear_2744_87" x1="23.503" y1="13" x2="23.503" y2="35.9998" gradientUnits="userSpaceOnUse">
<stop stop-color="#FFFDFC"/>
<stop offset="1" stop-color="#FFE7EE"/>
</linearGradient>
</defs>
</svg>
