<svg width="30" height="30" viewBox="0 0 30 30" fill="none" xmlns="http://www.w3.org/2000/svg">
<g clip-path="url(#clip0_2592_16380)">
<path d="M4.37501 4.99219C3.33948 4.99219 2.5 5.83166 2.5 6.86719V11.8672H3.74999V6.86719C3.74999 6.52202 4.02983 6.24217 4.37501 6.24217H19.3751V4.99219H4.37501Z" fill="#FF0071"/>
<path d="M4.37501 23.7423C4.02983 23.7423 3.74999 23.4624 3.74999 23.1172V16.8672H2.5V23.1172C2.5 24.1528 3.33948 24.9922 4.37501 24.9922H10.6251V23.7423H4.37501Z" fill="#FF0071"/>
<path d="M19.8168 25.354L4.63801 10.1752C4.39396 9.93119 3.99834 9.93119 3.75423 10.1752L0.182989 13.7465C-0.0609963 13.9905 -0.0609963 14.3861 0.182989 14.6303L15.3618 29.809C15.479 29.9263 15.638 29.9921 15.8037 29.9921C15.9694 29.9921 16.1283 29.9262 16.2455 29.809L19.8168 26.2378C20.0608 25.9937 20.0608 25.598 19.8168 25.354ZM15.8037 28.4834L1.50862 14.1883L4.19615 11.5008L18.4912 25.7959L15.8037 28.4834Z" fill="#FF0071"/>
<path d="M27.5 23.7422H18.125V24.9922H25V28.1172C25 28.4623 25.2799 28.7422 25.625 28.7422H27.5C28.8807 28.7422 30.0001 27.6229 30.0001 26.2422C30.0001 24.8615 28.8807 23.7422 27.5 23.7422ZM27.5 27.4922H26.2501V24.9922H27.5C28.1904 24.9922 28.75 25.5518 28.75 26.2422C28.75 26.9326 28.1904 27.4922 27.5 27.4922Z" fill="#FF0071"/>
<path d="M27.5 4.99219H24.375V6.24217H27.5C28.1903 6.24217 28.75 6.8018 28.75 7.49216V26.2422H30V7.49216C30 6.11145 28.8807 4.99219 27.5 4.99219Z" fill="#FF0071"/>
<path d="M11.4337 17.6717L9.55859 19.5469L10.4425 20.4307L12.3176 18.5556L11.4337 17.6717Z" fill="#FF0071"/>
<path d="M8.93375 15.1717L7.05859 17.0469L7.94245 17.9307L9.81761 16.0556L8.93375 15.1717Z" fill="#FF0071"/>
<path d="M13.9318 20.1717L12.0566 22.0469L12.9405 22.9307L14.8157 21.0556L13.9318 20.1717Z" fill="#FF0071"/>
<path d="M16.4338 22.6717L14.5586 24.5469L15.4425 25.4307L17.3176 23.5556L16.4338 22.6717Z" fill="#FF0071"/>
<path d="M6.4318 12.6717L4.55664 14.5469L5.4405 15.4307L7.31566 13.5556L6.4318 12.6717Z" fill="#FF0071"/>
<path d="M26.9593 1.39481L26.0955 0.531071C25.3647 -0.166607 24.2145 -0.166607 23.4836 0.531071L13.9799 10.0348C13.7359 10.2789 13.7359 10.6745 13.9799 10.9186L16.5718 13.5105C16.6887 13.6282 16.8478 13.6941 17.0136 13.6936C17.1794 13.6936 17.3383 13.6277 17.4555 13.5105L26.9593 4.00669C26.9596 4.0064 26.9599 4.0061 26.9602 4.00581C27.6809 3.28458 27.6805 2.11557 26.9593 1.39481ZM26.0762 3.12233L17.0136 12.1848L15.3055 10.4767L24.368 1.41479C24.604 1.18926 24.9758 1.18926 25.2118 1.41479L26.0762 2.27793C26.0762 2.27805 26.0763 2.27811 26.0765 2.27823C26.3094 2.51137 26.3093 2.8893 26.0762 3.12233Z" fill="#FF0071"/>
<path d="M16.8127 12.4781L14.1152 13.3788L15.0159 10.6769L13.8283 10.2812L12.5321 14.1694C12.5108 14.2331 12.5 14.2999 12.5 14.367C12.5001 14.7122 12.78 14.992 13.1251 14.9919C13.1913 14.9921 13.2571 14.982 13.3201 14.9619L17.2083 13.6656L16.8127 12.4781Z" fill="#FF0071"/>
<path d="M22.6378 2.25676L21.7539 3.14062L24.3459 5.73259L25.2297 4.84873L22.6378 2.25676Z" fill="#FF0071"/>
<path d="M22.5 13.7422H13.125V14.9922H22.5V13.7422Z" fill="#FF0071"/>
<path d="M25 13.7422H23.75V14.9922H25V13.7422Z" fill="#FF0071"/>
<path d="M27.5 13.7422H26.25V14.9922H27.5V13.7422Z" fill="#FF0071"/>
</g>
<defs>
<clipPath id="clip0_2592_16380">
<rect width="30" height="30" fill="white"/>
</clipPath>
</defs>
</svg>
