<svg width="48" height="48" viewBox="0 0 48 48" fill="none" xmlns="http://www.w3.org/2000/svg">
<circle cx="24" cy="24" r="24" fill="url(#paint0_linear_2744_98)"/>
<path fill-rule="evenodd" clip-rule="evenodd" d="M28.4193 20.4974C28.4193 22.9939 26.4291 24.9958 23.947 24.9958C21.4649 24.9958 19.4746 22.9939 19.4746 20.4974C19.4746 17.9999 21.4649 16 23.947 16C26.4291 16 28.4193 17.9999 28.4193 20.4974ZM23.946 33C20.3004 33 17.1875 32.4221 17.1875 30.1102C17.1875 27.7974 20.2804 27.1984 23.946 27.1984C27.5916 27.1984 30.7045 27.7763 30.7045 30.0891C30.7045 32.401 27.6116 33 23.946 33ZM30.3309 20.5785C30.3309 21.8512 29.9513 23.0368 29.2853 24.0224C29.2168 24.1238 29.2777 24.2607 29.3985 24.2817C29.565 24.3104 29.7372 24.3267 29.9123 24.3315C31.658 24.3774 33.2249 23.2473 33.6578 21.546C34.299 19.0188 32.4162 16.75 30.0188 16.75C29.7581 16.75 29.5089 16.7777 29.2663 16.8275C29.233 16.8352 29.1978 16.8505 29.1788 16.8801C29.1559 16.9165 29.173 16.9653 29.1959 16.9969C29.9161 18.0121 30.3309 19.2504 30.3309 20.5785ZM33.221 26.1071C34.394 26.3377 35.1656 26.8085 35.4852 27.4927C35.7554 28.0544 35.7554 28.706 35.4852 29.2667C34.9962 30.3279 33.4198 30.6686 32.8071 30.7566C32.6806 30.7758 32.5788 30.6657 32.5921 30.5385C32.9051 27.5979 30.4154 26.2037 29.7713 25.8832C29.7437 25.8688 29.738 25.8468 29.7409 25.8334C29.7428 25.8238 29.7542 25.8085 29.7751 25.8056C31.1689 25.7798 32.6673 25.9712 33.221 26.1071ZM18.0893 24.3314C18.2644 24.3266 18.4356 24.3113 18.603 24.2817C18.7239 24.2606 18.7847 24.1238 18.7163 24.0223C18.0503 23.0367 17.6707 21.8511 17.6707 20.5785C17.6707 19.2503 18.0855 18.0121 18.8057 16.9968C18.8285 16.9652 18.8447 16.9164 18.8228 16.8801C18.8038 16.8514 18.7676 16.8351 18.7353 16.8274C18.4917 16.7777 18.2425 16.7499 17.9818 16.7499C15.5844 16.7499 13.7016 19.0187 14.3438 21.5459C14.7766 23.2473 16.3435 24.3773 18.0893 24.3314ZM18.2592 25.8328C18.2621 25.8472 18.2564 25.8682 18.2298 25.8836C17.5847 26.2041 15.095 27.5983 15.408 30.5379C15.4213 30.6661 15.3205 30.7752 15.1939 30.757C14.5813 30.669 13.0049 30.3283 12.5159 29.2671C12.2447 28.7054 12.2447 28.0547 12.5159 27.493C12.8355 26.8089 13.6061 26.3381 14.7792 26.1065C15.3338 25.9716 16.8312 25.7802 18.2259 25.806C18.2469 25.8089 18.2573 25.8242 18.2592 25.8328Z" fill="url(#paint1_linear_2744_98)"/>
<defs>
<linearGradient id="paint0_linear_2744_98" x1="3.2" y1="9.06667" x2="43.2" y2="48" gradientUnits="userSpaceOnUse">
<stop stop-color="#65B5FF"/>
<stop offset="1" stop-color="#1C76FE"/>
</linearGradient>
<linearGradient id="paint1_linear_2744_98" x1="24.0002" y1="16" x2="24.0002" y2="33" gradientUnits="userSpaceOnUse">
<stop stop-color="#FFFCFB"/>
<stop offset="1" stop-color="#D2E5FF"/>
</linearGradient>
</defs>
</svg>
