<svg width="50" height="50" viewBox="0 0 50 50" fill="none" xmlns="http://www.w3.org/2000/svg">
<path d="M29.8438 24.2969C28.5156 25.3125 26.875 25.9375 25 25.9375C23.2031 25.9375 21.4844 25.3125 20.1563 24.2969C16.5625 26.0938 14.0625 29.7656 14.0625 34.0625V37.6563H35.9375V34.0625C35.9375 29.7657 33.4375 26.0157 29.8438 24.2969Z" fill="white"/>
<path d="M35.9374 38.4368H14.0625C13.5938 38.4368 13.2812 38.1242 13.2812 37.6555V34.0617C13.2812 29.6087 15.7812 25.5462 19.8437 23.593C20.0781 23.4368 20.4688 23.5148 20.7032 23.6711C21.9531 24.6868 23.4375 25.1555 25.0782 25.1555C26.7189 25.1555 28.1251 24.6086 29.4532 23.6711C29.6876 23.5149 30.0001 23.4368 30.3126 23.593C34.3751 25.5461 36.8751 29.6086 36.8751 34.0617V37.6555C36.7187 38.0461 36.3281 38.4368 35.9374 38.4368ZM14.8438 36.8743H35.1563V34.0617C35.1563 30.3118 33.125 26.9524 29.9219 25.1555C28.4376 26.1711 26.7969 26.718 25 26.718C23.2031 26.718 21.5626 26.1711 20.0781 25.1555C16.7969 26.9524 14.8438 30.3118 14.8438 34.0617V36.8743Z" fill="#183651"/>
<path d="M17.1875 34.5313V34.0625C17.1875 31.6407 18.2813 29.375 20.1562 27.8906C21.6406 28.5937 23.2813 28.9844 25 28.9844C26.7187 28.9844 28.3594 28.5938 29.8437 27.8906C31.7188 29.375 32.8125 31.5625 32.8125 34.0625V34.5313H17.1875Z" fill="#FBBD5E"/>
<path d="M43.2813 21.4844H41.7188V23.0469H43.2813V21.4844Z" fill="#183651"/>
<path d="M43.2813 24.6094H41.7188V26.1719H43.2813V24.6094Z" fill="#183651"/>
<path d="M43.2813 27.6562H41.7188V29.2188H43.2813V27.6562Z" fill="#183651"/>
<path d="M8.28127 21.4844H6.71875V23.0469H8.28127V21.4844Z" fill="#183651"/>
<path d="M8.28127 24.6094H6.71875V26.1719H8.28127V24.6094Z" fill="#183651"/>
<path d="M8.28127 27.6562H6.71875V29.2188H8.28127V27.6562Z" fill="#183651"/>
<path d="M28.9063 44.0625H27.3438V45.625H28.9063V44.0625Z" fill="#183651"/>
<path d="M25.7813 44.0625H24.2188V45.625H25.7813V44.0625Z" fill="#183651"/>
<path d="M22.6563 44.0625H21.0938V45.625H22.6563V44.0625Z" fill="#183651"/>
<path d="M28.9063 5.15625H27.3438V6.71876H28.9063V5.15625Z" fill="#183651"/>
<path d="M25.7813 5.15625H24.2188V6.71876H25.7813V5.15625Z" fill="#183651"/>
<path d="M22.6563 5.15625H21.0938V6.71876H22.6563V5.15625Z" fill="#183651"/>
<path d="M25 23.2031C27.8046 23.2031 30.0781 20.9296 30.0781 18.125C30.0781 15.3204 27.8046 13.0469 25 13.0469C22.1954 13.0469 19.9219 15.3204 19.9219 18.125C19.9219 20.9296 22.1954 23.2031 25 23.2031Z" fill="white"/>
<path d="M25 23.9063C21.7969 23.9063 19.1406 21.3281 19.1406 18.0469C19.1406 14.7656 21.7188 12.1875 25 12.1875C28.2031 12.1875 30.8594 14.7656 30.8594 18.0469C30.8594 21.3281 28.2031 23.9063 25 23.9063ZM25 13.8282C22.6562 13.8282 20.7031 15.7813 20.7031 18.125C20.7031 20.4688 22.6562 22.4219 25 22.4219C27.3438 22.4219 29.2969 20.4688 29.2969 18.125C29.2969 15.7813 27.3437 13.8282 25 13.8282Z" fill="#183651"/>
<path d="M7.50002 42.5782C9.35537 42.5782 10.8594 41.0741 10.8594 39.2188C10.8594 37.3634 9.35537 35.8594 7.50002 35.8594C5.64468 35.8594 4.14062 37.3634 4.14062 39.2188C4.14062 41.0741 5.64468 42.5782 7.50002 42.5782Z" fill="white"/>
<path d="M7.50003 43.3594C5.23441 43.3594 3.35938 41.4844 3.35938 39.2188C3.35938 36.9532 5.23441 35.0781 7.50003 35.0781C9.76565 35.0781 11.6407 36.9532 11.6407 39.2188C11.6407 41.4845 9.76575 43.3594 7.50003 43.3594ZM7.50003 36.6407C6.09383 36.6407 4.92189 37.8126 4.92189 39.2189C4.92189 40.6251 6.09373 41.797 7.50003 41.797C8.90633 41.797 10.0782 40.6252 10.0782 39.2189C10.0782 37.8126 8.90633 36.6407 7.50003 36.6407Z" fill="#183651"/>
<path d="M7.50002 42.5781C3.82809 42.5781 0.859375 45.5468 0.859375 49.2188H14.1407C14.1407 45.5469 11.1719 42.5781 7.50002 42.5781Z" fill="#F06151"/>
<path d="M14.1406 50H0.859383C0.390648 50 0.078125 49.6875 0.078125 49.2188C0.078125 45.1563 3.43752 41.7969 7.50002 41.7969C11.5625 41.7969 14.9219 45.1563 14.9219 49.2188C14.9218 49.6875 14.6093 50 14.1406 50ZM1.64064 48.4375H13.2813C12.8907 45.5468 10.4687 43.3594 7.42187 43.3594C4.37499 43.3594 2.03122 45.5469 1.64064 48.4375Z" fill="#183651"/>
<path d="M7.50002 7.50005C9.35537 7.50005 10.8594 5.99599 10.8594 4.14065C10.8594 2.2853 9.35537 0.78125 7.50002 0.78125C5.64468 0.78125 4.14062 2.2853 4.14062 4.14065C4.14062 5.99599 5.64468 7.50005 7.50002 7.50005Z" fill="white"/>
<path d="M7.50003 8.28121C5.23441 8.28121 3.35938 6.40618 3.35938 4.14056C3.35938 1.87494 5.23441 0 7.50003 0C9.76565 0 11.6407 1.87504 11.6407 4.14066C11.6407 6.40627 9.76575 8.28121 7.50003 8.28121ZM7.50003 1.56252C6.09383 1.56252 4.92189 2.73435 4.92189 4.14066C4.92189 5.54696 6.09383 6.7188 7.50003 6.7188C8.90624 6.7188 10.0782 5.54696 10.0782 4.14066C10.0782 2.73435 8.90633 1.56252 7.50003 1.56252Z" fill="#183651"/>
<path d="M7.50002 7.5C3.82809 7.5 0.859375 10.4687 0.859375 14.1406H14.1407C14.1407 10.4688 11.1719 7.5 7.50002 7.5Z" fill="#2EA0DA"/>
<path d="M14.1406 14.9219H0.859383C0.390648 14.9219 0.078125 14.6094 0.078125 14.1407C0.078125 10.0782 3.43752 6.71875 7.50002 6.71875C11.5625 6.71875 14.9219 10.0782 14.9219 14.1407C14.9218 14.6094 14.6093 14.9219 14.1406 14.9219ZM1.64064 13.3594H13.2813C12.8907 10.4687 10.4687 8.28127 7.42187 8.28127C4.37499 8.28127 2.03122 10.4688 1.64064 13.3594Z" fill="#183651"/>
<path d="M42.5 42.5782C44.3554 42.5782 45.8594 41.0741 45.8594 39.2188C45.8594 37.3634 44.3554 35.8594 42.5 35.8594C40.6447 35.8594 39.1406 37.3634 39.1406 39.2188C39.1406 41.0741 40.6447 42.5782 42.5 42.5782Z" fill="white"/>
<path d="M42.5 43.3594C40.2344 43.3594 38.3594 41.4844 38.3594 39.2188C38.3594 36.9532 40.2344 35.0781 42.5 35.0781C44.7656 35.0781 46.6407 36.9532 46.6407 39.2188C46.6406 41.4845 44.7656 43.3594 42.5 43.3594ZM42.5 36.6407C41.0938 36.6407 39.9219 37.8126 39.9219 39.2189C39.9219 40.6251 41.0937 41.797 42.5 41.797C43.9062 41.797 45.0782 40.6252 45.0782 39.2189C45.0781 37.8126 43.9062 36.6407 42.5 36.6407Z" fill="#183651"/>
<path d="M42.5 42.5781C38.8281 42.5781 35.8594 45.5468 35.8594 49.2188H49.1407C49.1406 45.5469 46.1718 42.5781 42.5 42.5781Z" fill="#4FBF9F"/>
<path d="M49.1406 50H35.8594C35.3906 50 35.0781 49.6875 35.0781 49.2188C35.0781 45.1563 38.4375 41.7969 42.5 41.7969C46.5625 41.7969 49.9219 45.1563 49.9219 49.2188C49.9218 49.6875 49.6094 50 49.1406 50ZM36.7187 48.4375H48.3593C47.9687 45.5468 45.5468 43.3594 42.4999 43.3594C39.453 43.3594 37.0312 45.5469 36.7187 48.4375Z" fill="#183651"/>
<path d="M42.5 7.50005C44.3554 7.50005 45.8594 5.99599 45.8594 4.14065C45.8594 2.2853 44.3554 0.78125 42.5 0.78125C40.6447 0.78125 39.1406 2.2853 39.1406 4.14065C39.1406 5.99599 40.6447 7.50005 42.5 7.50005Z" fill="white"/>
<path d="M42.5 8.28121C40.2344 8.28121 38.3594 6.40618 38.3594 4.14056C38.3594 1.87494 40.2344 0 42.5 0C44.7656 0 46.6407 1.87504 46.6407 4.14066C46.6407 6.40627 44.7656 8.28121 42.5 8.28121ZM42.5 1.56252C41.0938 1.56252 39.9219 2.73435 39.9219 4.14066C39.9219 5.54696 41.0937 6.7188 42.5 6.7188C43.9062 6.7188 45.0782 5.54696 45.0782 4.14066C45.0782 2.73435 43.9062 1.56252 42.5 1.56252Z" fill="#183651"/>
<path d="M42.5 7.5C38.8281 7.5 35.8594 10.4687 35.8594 14.1406H49.1407C49.1406 10.4688 46.1718 7.5 42.5 7.5Z" fill="#FBBD5E"/>
<path d="M49.1406 14.9219H35.8594C35.3906 14.9219 35.0781 14.6094 35.0781 14.1407C35.0781 10.0782 38.4375 6.71875 42.5 6.71875C46.5625 6.71875 49.9219 10.0782 49.9219 14.1407C49.9218 14.6094 49.6094 14.9219 49.1406 14.9219ZM36.7187 13.3594H48.3593C47.9687 10.4687 45.5468 8.28127 42.4999 8.28127C39.453 8.28127 37.0312 10.4688 36.7187 13.3594Z" fill="#183651"/>
</svg>
