<svg width="50" height="50" viewBox="0 0 50 50" fill="none" xmlns="http://www.w3.org/2000/svg">
<g clip-path="url(#clip0_2503_235)">
<path d="M49.1431 0.820312H0.78125V33.4256H49.1431V0.820312Z" fill="#E1E6E7"/>
<path d="M49.1419 34.2044H0.780038C0.312035 34.2044 0 33.8923 0 33.4243V0.819101C0 0.351098 0.312035 0.0390625 0.780038 0.0390625H49.1419C49.6099 0.0390625 49.922 0.351098 49.922 0.819101V33.4243C49.922 33.8144 49.6099 34.2044 49.1419 34.2044ZM1.56008 32.6443H48.3619V1.59914H1.56008V32.6443Z" fill="#183651"/>
<path d="M46.0221 3.9375H3.90039V30.3025H46.0221V3.9375Z" fill="white"/>
<path d="M19.0313 20.0857C19.0313 20.0857 25.5836 22.8938 25.5056 27.028H6.31683C6.31683 27.028 4.91282 24.2198 12.9471 19.9297L19.0313 20.0857Z" fill="#2CA0DA"/>
<path d="M17.7855 17.8199C17.7855 17.8199 17.7075 19.146 19.1116 20.082C19.1116 20.082 15.7574 22.6561 13.0273 19.9261C13.0273 19.9261 13.8854 19.302 13.8854 17.5859L17.7855 17.8199Z" fill="#FBBD5E"/>
<path d="M19.2656 15.1707C19.2656 15.1707 18.6415 18.2129 15.9114 18.6028C15.9114 18.6028 13.1814 18.5248 12.2453 14.4686L11.6992 13.4546V11.1145L12.7133 9.71047L15.1313 9.39844L18.7195 10.6465L19.8895 13.0645L19.2656 15.1707Z" fill="#E1E6E7"/>
<path d="M19.2677 15.1703C19.2677 15.1703 20.5938 11.9722 17.0057 11.5041C17.0057 11.5041 15.6016 11.6601 14.3535 10.1001C14.3535 10.1001 11.0774 10.6461 12.2474 14.5462C12.2474 14.5462 9.0493 9.94402 13.9634 7.75997C18.8776 5.57592 20.5937 9.94402 20.5937 9.94402C20.5937 9.94402 21.6858 13.2202 19.2677 15.1703Z" fill="#173651"/>
<path d="M47.7371 44.6601L43.0569 42.0859L38.3767 44.6601C37.5186 45.1281 36.9727 46.0641 36.9727 47.0781V49.2621H49.0631V47.0781C49.1411 46.0641 48.5951 45.1281 47.7371 44.6601Z" fill="#4FBF9F"/>
<path d="M49.142 49.9629H37.0515C36.5835 49.9629 36.2715 49.6509 36.2715 49.1829V46.9988C36.2715 45.7508 36.9735 44.5028 38.0656 43.9567L42.7458 41.3826C42.9798 41.2266 43.2918 41.2266 43.5258 41.3826L48.2061 43.9567C49.2981 44.5808 50.0001 45.7508 50.0001 46.9988V49.1829C49.922 49.6509 49.61 49.9629 49.142 49.9629ZM37.8316 48.4029H48.3619V46.9988C48.3619 46.2968 47.972 45.6728 47.3479 45.2828L43.0577 42.9427L38.7676 45.2828C38.2215 45.6728 37.8316 46.2968 37.8316 46.9988V48.4029Z" fill="#183651"/>
<path d="M46.0999 39.3545C46.0999 41.3826 44.7738 43.7227 43.0577 43.7227C41.3417 43.7227 40.0156 41.3826 40.0156 39.3545C40.0156 37.3264 41.3417 36.2344 43.0577 36.2344C44.7738 36.2344 46.0999 37.3264 46.0999 39.3545Z" fill="white"/>
<path d="M43.1366 44.5016C40.9526 44.5016 39.3145 41.7715 39.3145 39.3533C39.3145 37.0132 40.8745 35.4531 43.1366 35.4531C45.3987 35.4531 46.9588 37.0132 46.9588 39.3533C46.8807 41.7715 45.3207 44.5016 43.1366 44.5016ZM43.1366 37.0913C41.7326 37.0913 40.8745 37.9494 40.8745 39.4314C40.8745 41.1475 42.0445 43.0196 43.1366 43.0196C44.2287 43.0196 45.3987 41.1475 45.3987 39.4314C45.3207 37.9493 44.5406 37.0913 43.1366 37.0913Z" fill="#183651"/>
<path d="M35.6473 44.6601L30.9671 42.0859L26.2868 44.6601C25.4288 45.1281 24.8828 46.0641 24.8828 47.0781V49.2621H37.0513V47.0781C37.0514 46.0641 36.5054 45.1281 35.6473 44.6601Z" fill="#FBBD5E"/>
<path d="M37.0502 49.9629H24.9597C24.4917 49.9629 24.1797 49.6509 24.1797 49.1829V46.9988C24.1797 45.7508 24.8817 44.5028 25.9738 43.9567L30.654 41.3826C30.888 41.2266 31.2 41.2266 31.434 41.3826L36.1143 43.9567C37.2063 44.5808 37.9083 45.7508 37.9083 46.9988V49.1829C37.8302 49.6509 37.5182 49.9629 37.0502 49.9629ZM25.7397 48.4029H36.27V46.9988C36.27 46.2968 35.8801 45.6728 35.256 45.2828L30.9658 42.9427L26.6757 45.2828C26.0516 45.5948 25.6616 46.2968 25.6616 46.9988V48.4029H25.7397Z" fill="#183651"/>
<path d="M34.01 39.3545C34.01 41.3826 32.6839 43.7227 30.9679 43.7227C29.2519 43.7227 27.9258 41.3826 27.9258 39.3545C27.9258 37.3264 29.2519 36.2344 30.9679 36.2344C32.6839 36.2344 34.01 37.3264 34.01 39.3545Z" fill="white"/>
<path d="M31.0448 44.5016C28.8608 44.5016 27.2227 41.7715 27.2227 39.3533C27.2227 37.0132 28.7827 35.4531 31.0448 35.4531C33.3069 35.4531 34.867 37.0132 34.867 39.3533C34.7889 41.7715 33.2289 44.5016 31.0448 44.5016ZM31.0448 37.0913C29.6408 37.0913 28.7827 37.9494 28.7827 39.4314C28.7827 41.1475 29.9527 43.0196 31.0448 43.0196C32.1369 43.0196 33.3069 41.1475 33.3069 39.4314C33.2289 37.9493 32.4488 37.0913 31.0448 37.0913Z" fill="#183651"/>
<path d="M23.5574 44.6601L18.8772 42.0859L14.197 44.6601C13.3389 45.1281 12.793 46.0641 12.793 47.0781V49.2621H24.8834V47.0781C24.9616 46.0641 24.4155 45.1281 23.5574 44.6601Z" fill="#4FBF9F"/>
<path d="M24.9604 49.9629H12.8699C12.4019 49.9629 12.0898 49.6509 12.0898 49.1829V46.9988C12.0898 45.7508 12.7918 44.5028 13.8839 43.9567L18.5642 41.3826C18.7982 41.2266 19.1102 41.2266 19.3442 41.3826L24.0244 43.9567C25.1165 44.5808 25.8185 45.7508 25.8185 46.9988V49.1829C25.7404 49.6509 25.4284 49.9629 24.9604 49.9629ZM13.6499 48.4029H24.1803V46.9988C24.1803 46.2968 23.7903 45.6728 23.1663 45.2828L18.8761 42.9427L14.5859 45.2828C14.0399 45.6728 13.6499 46.2968 13.6499 46.9988V48.4029Z" fill="#183651"/>
<path d="M21.9202 39.3545C21.9202 41.3826 20.5941 43.7227 18.8781 43.7227C17.162 43.7227 15.8359 41.3826 15.8359 39.3545C15.8359 37.3264 17.162 36.2344 18.8781 36.2344C20.5941 36.2344 21.9202 37.3264 21.9202 39.3545Z" fill="white"/>
<path d="M18.955 44.5016C16.7709 44.5016 15.1328 41.7715 15.1328 39.3533C15.1328 37.0132 16.6929 35.4531 18.955 35.4531C21.2171 35.4531 22.7771 37.0132 22.7771 39.3533C22.6991 41.7715 21.1391 44.5016 18.955 44.5016ZM18.955 37.0913C17.551 37.0913 16.6929 37.9494 16.6929 39.4314C16.6929 41.1475 17.8629 43.0196 18.955 43.0196C20.047 43.0196 21.2171 41.1475 21.2171 39.4314C21.1391 37.9493 20.3591 37.0913 18.955 37.0913Z" fill="#183651"/>
<path d="M11.4676 44.6601L6.78737 42.0859L2.10713 44.6601C1.24906 45.1281 0.703125 46.0641 0.703125 47.0781V49.2621H12.8716V47.0781C12.8716 46.0641 12.3256 45.1281 11.4676 44.6601Z" fill="#FBBD5E"/>
<path d="M12.8705 49.9629H0.780038C0.312035 49.9629 0 49.6509 0 49.1829V46.9988C0 45.7508 0.702005 44.5028 1.79408 43.9567L6.47431 41.3826C6.70831 41.2266 7.02035 41.2266 7.25435 41.3826L11.9346 43.9567C13.0267 44.5808 13.7287 45.7508 13.7287 46.9988V49.1829C13.6505 49.6509 13.3385 49.9629 12.8705 49.9629ZM1.56008 48.4029H12.0904V46.9988C12.0904 46.2968 11.7005 45.6728 11.0764 45.2828L6.78625 42.9427L2.49608 45.2828C1.95005 45.6728 1.56008 46.2968 1.56008 46.9988V48.4029Z" fill="#183651"/>
<path d="M9.82838 39.3545C9.82838 41.3826 8.50231 43.7227 6.78626 43.7227C5.07022 43.7227 3.74414 41.3826 3.74414 39.3545C3.74414 37.3264 5.07022 36.2344 6.78626 36.2344C8.50231 36.2344 9.82838 37.3264 9.82838 39.3545Z" fill="white"/>
<path d="M6.86513 44.5016C4.68108 44.5016 3.04297 41.7715 3.04297 39.3533C3.04297 37.0132 4.60305 35.4531 6.86513 35.4531C9.12721 35.4531 10.6873 37.0132 10.6873 39.3533C10.6093 41.7715 9.04918 44.5016 6.86513 44.5016ZM6.86513 37.0913C5.46112 37.0913 4.60305 37.9494 4.60305 39.4314C4.60305 41.1475 5.77305 43.0196 6.86513 43.0196C7.9572 43.0196 9.12721 41.1475 9.12721 39.4314C9.04918 37.9493 8.26914 37.0913 6.86513 37.0913Z" fill="#183651"/>
<path d="M30.4214 7.83594H28.8613V9.39601H30.4214V7.83594Z" fill="#183651"/>
<path d="M34.7905 7.83594H33.2305V9.39601H34.7905V7.83594Z" fill="#183651"/>
<path d="M39.2359 7.83594H37.6758V9.39601H39.2359V7.83594Z" fill="#183651"/>
<path d="M43.6812 7.83594H42.1211V9.39601H43.6812V7.83594Z" fill="#183651"/>
<path d="M43.682 13.5312H28.8613V15.0913H43.682V13.5312Z" fill="#183651"/>
<path d="M43.682 19.1484H28.8613V20.7085H43.682V19.1484Z" fill="#183651"/>
<path d="M43.682 24.7656H28.8613V26.3257H43.682V24.7656Z" fill="#183651"/>
</g>
<defs>
<clipPath id="clip0_2503_235">
<rect width="50" height="50" fill="white"/>
</clipPath>
</defs>
</svg>
