<svg width="50" height="50" viewBox="0 0 50 50" fill="none" xmlns="http://www.w3.org/2000/svg">
<g clip-path="url(#clip0_2503_301)">
<path d="M49.2188 0.78125H12.8125V37.1875H49.2188V0.78125Z" fill="#4FBF9F"/>
<path d="M49.2187 37.9687H12.8125C12.3438 37.9687 12.0312 37.6562 12.0312 37.1875V0.781258C12.0312 0.312523 12.3438 0 12.8125 0H49.2188C49.6875 0 50 0.312523 50 0.781258V37.1876C49.9999 37.5781 49.6874 37.9687 49.2187 37.9687ZM13.5937 36.4063H48.4374V1.56252H13.5937V36.4063Z" fill="#183651"/>
<path d="M46.0937 3.90625H15.9375V34.0625H46.0937V3.90625Z" fill="white"/>
<path d="M42.9688 7.03125H6.5625V43.4375H42.9688V7.03125Z" fill="#E0E4E8"/>
<path d="M42.9688 44.2188H6.56251C6.09377 44.2188 5.78125 43.9063 5.78125 43.4376V7.03126C5.78125 6.56252 6.09377 6.25 6.56251 6.25H42.9688C43.4375 6.25 43.7501 6.56252 43.7501 7.03126V43.4376C43.7501 43.8281 43.4375 44.2188 42.9688 44.2188ZM7.34377 42.6563H42.1875V7.81252H7.34377V42.6563Z" fill="#183651"/>
<path d="M39.8437 10.1562H9.6875V40.3125H39.8437V10.1562Z" fill="white"/>
<path d="M37.1875 12.8125H0.78125V49.2188H37.1875V12.8125Z" fill="#FBBD5E"/>
<path d="M37.1876 50H0.781258C0.312523 50 0 49.6874 0 49.2187V12.8125C0 12.3438 0.312523 12.0312 0.781258 12.0312H37.1876C37.6563 12.0312 37.9688 12.3438 37.9688 12.8125V49.2188C37.9687 49.6874 37.6563 50 37.1876 50ZM1.56252 48.4374H36.4063V13.5937H1.56252V48.4374Z" fill="#183651"/>
<path d="M34.0625 15.9375H3.90625V46.0937H34.0625V15.9375Z" fill="white"/>
<path d="M8.28121 26.4843C9.37499 25.6249 10.3125 24.2968 10.3125 24.2968L10.9375 24.1406L14.1406 26.1719C17.5 27.5781 16.6406 30.7813 16.6406 30.7813C12.8906 33.9844 9.06247 33.2812 7.10938 32.6563V28.75C7.18753 27.8905 7.57811 27.0312 8.28121 26.4843Z" fill="#F06151"/>
<path d="M15.0782 20.3907L14.7656 19.7656L12.1094 19.2969L10.625 20.1563L9.375 21.6406L9.53121 23.125L10.3125 24.2968C11.0937 25.3906 11.875 25.9375 12.4219 26.2499C13.125 26.6405 14.0625 26.4061 14.4531 25.7812C16.1719 23.2032 15.0782 20.3907 15.0782 20.3907Z" fill="#FBBD5E"/>
<path d="M15.078 20.3895C15.078 20.3895 15.4685 19.6082 15.1561 19.1395C14.8436 18.7489 11.1718 17.4208 9.53109 19.452C7.89042 21.4833 10.3123 24.2958 10.3123 24.2958C10.3123 24.2958 9.06236 22.4989 9.99983 22.1864C9.99983 22.1864 10.4686 21.952 10.7811 22.7332C10.7811 22.7332 10.4686 20.3895 11.9529 20.3114C11.9529 20.3114 12.578 19.9208 13.7498 20.9365C13.828 21.0144 14.3748 20.1551 15.078 20.3895Z" fill="#183651"/>
<path d="M21.3281 19.8438H19.7656V21.4844H21.3281V19.8438Z" fill="#183651"/>
<path d="M24.4531 19.8438H22.8906V21.4844H24.4531V19.8438Z" fill="#183651"/>
<path d="M27.6563 19.8438H26.0938V21.4844H27.6563V19.8438Z" fill="#183651"/>
<path d="M30.7813 19.8438H29.2188V21.4844H30.7813V19.8438Z" fill="#183651"/>
<path d="M30.7813 25.3906H19.7656V27.0313H30.7813V25.3906Z" fill="#CECFD0"/>
<path d="M30.7813 30.9375H19.7656V32.5782H30.7813V30.9375Z" fill="#CECFD0"/>
<path d="M30.7813 36.4844H7.1875V38.125H30.7813V36.4844Z" fill="#CECFD0"/>
<path d="M30.7813 42.0312H7.1875V43.6719H30.7813V42.0312Z" fill="#CECFD0"/>
</g>
<defs>
<clipPath id="clip0_2503_301">
<rect width="50" height="50" fill="white"/>
</clipPath>
</defs>
</svg>
