<svg width="50" height="50" viewBox="0 0 50 50" fill="none" xmlns="http://www.w3.org/2000/svg">
<path d="M40.2397 0.859375H3.12401C1.79491 0.859375 0.783203 1.87108 0.783203 3.20018V10.6987H42.5805V3.20018C42.5805 1.87108 41.4894 0.859375 40.2397 0.859375Z" fill="white"/>
<path d="M42.5808 11.4846H0.783575C0.317397 11.4846 0 11.1672 0 10.701V3.2025C0 1.48658 1.40845 0.078125 3.12438 0.078125H40.24C41.956 0.078125 43.3644 1.48658 43.3644 3.2025V10.701C43.3644 11.0978 42.9776 11.4846 42.5808 11.4846ZM1.56715 9.92736H41.8072V3.2025C41.8072 2.33958 41.103 1.63536 40.24 1.63536H3.12438C2.26146 1.63536 1.55723 2.33958 1.55723 3.2025V9.92736H1.56715Z" fill="#183651"/>
<path d="M0.783203 10.7109V37.045C0.783203 38.3741 1.79491 39.3858 3.12401 39.3858H40.2397C41.5688 39.3858 42.5805 38.3741 42.5805 37.045V10.7109H0.783203Z" fill="white"/>
<path d="M40.24 40.1618H3.12438C1.40845 40.1618 0 38.7533 0 37.0374V10.7133C0 10.2471 0.317397 9.92969 0.783575 9.92969H42.5808C43.047 9.92969 43.3644 10.2471 43.3644 10.7133V37.0473C43.3644 38.7533 41.956 40.1618 40.24 40.1618ZM1.56715 11.4869V37.0374C1.56715 37.9003 2.27137 38.6046 3.1343 38.6046H40.2499C41.1129 38.6046 41.8171 37.9003 41.8171 37.0374V11.4869H1.56715Z" fill="#183651"/>
<path d="M34.2987 7.73608C35.3779 7.73608 36.2527 6.86125 36.2527 5.7821C36.2527 4.70295 35.3779 3.82812 34.2987 3.82812C33.2196 3.82812 32.3447 4.70295 32.3447 5.7821C32.3447 6.86125 33.2196 7.73608 34.2987 7.73608Z" fill="white"/>
<path d="M34.2991 8.52198C32.8113 8.52198 31.5615 7.27222 31.5615 5.78443C31.5615 4.29663 32.8113 3.04688 34.2991 3.04688C35.7869 3.04688 37.0366 4.29663 37.0366 5.78443C37.0366 7.27222 35.8662 8.52198 34.2991 8.52198ZM34.2991 4.53467C33.6742 4.53467 33.1287 5.0802 33.1287 5.70508C33.1287 6.32995 33.6742 6.87548 34.2991 6.87548C34.9239 6.87548 35.4695 6.32995 35.4695 5.70508C35.4695 5.0802 35.0033 4.53467 34.2991 4.53467Z" fill="#183651"/>
<path d="M8.9862 7.73608C10.0654 7.73608 10.9402 6.86125 10.9402 5.7821C10.9402 4.70295 10.0654 3.82812 8.9862 3.82812C7.90705 3.82812 7.03223 4.70295 7.03223 5.7821C7.03223 6.86125 7.90705 7.73608 8.9862 7.73608Z" fill="white"/>
<path d="M8.98658 8.52198C7.49878 8.52198 6.24902 7.27222 6.24902 5.78443C6.24902 4.29663 7.49878 3.04688 8.98658 3.04688C10.4744 3.04688 11.7241 4.29663 11.7241 5.78443C11.7241 7.27222 10.5537 8.52198 8.98658 8.52198ZM8.98658 4.53467C8.3617 4.53467 7.81617 5.0802 7.81617 5.70508C7.81617 6.32995 8.3617 6.87548 8.98658 6.87548C9.61145 6.87548 10.157 6.32995 10.157 5.70508C10.157 5.0802 9.6908 4.53467 8.98658 4.53467Z" fill="#183651"/>
<path d="M28.7546 45.6353L32.7419 46.5776L33.833 43.6913C34.8447 43.6913 35.8663 43.5326 36.7987 43.2251L38.6733 45.7246L42.1845 43.6119L40.9348 40.795C41.639 40.0908 42.2639 39.3072 42.73 38.3749L45.6957 38.6923L46.638 34.7049L43.7517 33.6139C43.7517 32.6022 43.593 31.5806 43.2855 30.6482L45.7056 28.7736L43.593 25.2624L40.786 26.4923C40.0818 25.7881 39.2982 25.1632 38.3658 24.697L38.7527 21.652L34.7653 20.7891L33.6743 23.6754C32.6626 23.6754 31.641 23.8341 30.7086 24.1416L28.834 21.7214L25.3922 23.8341L26.642 26.651C25.9377 27.3552 25.3129 28.1388 24.8467 29.0711L21.8016 28.6843L20.8594 32.6716L23.7457 33.7627C23.7457 34.7744 23.9044 35.796 24.2119 36.7284L21.7917 38.603L23.9044 42.1142L26.7213 40.8644C27.4255 41.5687 28.2091 42.1935 29.1415 42.6597L28.7546 45.6353Z" fill="white"/>
<path d="M32.7413 47.3488C32.6619 47.3488 32.5826 47.3488 32.5826 47.3488L28.5953 46.4065C28.2085 46.3272 27.9704 45.9403 27.9704 45.5436L28.2878 43.0441C27.6629 42.6573 27.1174 42.2605 26.5719 41.7943L24.3104 42.806C23.9236 42.9647 23.5268 42.806 23.2987 42.4887L21.1761 38.9874C20.9381 38.67 21.0174 38.2038 21.3348 37.9757L23.2888 36.4085C23.1301 35.7043 22.9714 35.0001 22.9714 34.2958L20.6306 33.4329C20.2438 33.2742 20.0851 32.8874 20.1644 32.4906L21.1067 28.5033C21.186 28.1165 21.5729 27.8785 21.9696 27.8785L24.4691 28.1959C24.8559 27.571 25.2527 27.0254 25.7189 26.4799L24.7072 24.2185C24.5485 23.8316 24.7072 23.4349 25.0246 23.2068L28.5358 21.0941C28.8532 20.856 29.3193 20.9354 29.5475 21.2528L31.1146 23.2068C31.8188 23.0481 32.5231 22.8894 33.2273 22.8894L34.0902 20.5486C34.2489 20.1617 34.6358 20.003 35.0325 20.0824L39.0198 21.0247C39.4066 21.104 39.6447 21.4908 39.6447 21.8876L39.3273 24.3871C39.9522 24.7739 40.4977 25.1707 41.0432 25.6368L43.3047 24.6251C43.6915 24.4664 44.0882 24.6251 44.3164 24.9425L46.429 28.4537C46.6671 28.7711 46.5877 29.2373 46.2703 29.4654L44.3164 31.0326C44.4751 31.7368 44.6338 32.441 44.6338 33.1453L46.9746 34.0082C47.3614 34.1669 47.5201 34.5537 47.4407 34.9505L46.4985 38.9378C46.4191 39.3246 46.0323 39.5626 45.6356 39.5626L43.136 39.2452C42.7492 39.8701 42.3525 40.4157 41.8863 40.9612L42.898 43.2226C43.0567 43.6095 42.898 44.0062 42.5806 44.2343L39.0694 46.3272C38.752 46.5652 38.2858 46.4859 38.0577 46.1685L36.4905 44.2145C35.7863 44.3732 35.0821 44.5319 34.3779 44.5319L33.5149 46.8727C33.3662 47.1901 33.0488 47.3488 32.7413 47.3488ZM29.6169 44.9981L32.2751 45.6229L33.138 43.4309C33.2174 43.1135 33.5249 42.9647 33.8423 42.9647C34.7845 42.9647 35.7169 42.806 36.5798 42.5779C36.8972 42.4986 37.2047 42.5779 37.4427 42.816L38.9305 44.6906L41.2713 43.2821L40.3291 41.0901C40.1704 40.7727 40.2497 40.4652 40.4878 40.2272C41.1126 39.6023 41.6582 38.8187 42.1243 38.0352C42.283 37.7178 42.5905 37.569 42.9079 37.6483L45.2487 37.9657L45.8736 35.3075L43.6816 34.4446C43.3642 34.3653 43.2154 34.0578 43.2154 33.7404C43.2154 32.7981 43.0567 31.8658 42.8286 31.0028C42.7492 30.6854 42.8286 30.378 43.0666 30.1399L44.9412 28.6521L43.5328 26.3113L41.3408 27.2536C41.0234 27.4123 40.7159 27.3329 40.4778 27.0949C39.853 26.47 39.0694 25.9245 38.2858 25.4583C37.9684 25.2996 37.8196 24.9921 37.899 24.6747L38.2164 22.3339L35.5582 21.709L34.6953 23.9011C34.6159 24.2185 34.3084 24.3672 33.991 24.3672C33.0488 24.3672 32.1164 24.5259 31.2535 24.7541C30.9361 24.8334 30.6286 24.7541 30.3906 24.516L28.9028 22.6414L26.562 24.0499L27.5042 26.2419C27.6629 26.5593 27.5836 26.8667 27.3455 27.1048C26.7207 27.7297 26.1751 28.5132 25.709 29.2968C25.5503 29.6142 25.2428 29.763 24.9254 29.6837L22.5846 29.3663L21.9597 32.0245L24.1517 32.8874C24.4691 32.9667 24.6179 33.2742 24.6179 33.5916C24.6179 34.5339 24.7766 35.4662 25.0047 36.3292C25.0841 36.6466 25.0047 36.954 24.7667 37.1921L22.892 38.6799L24.3005 41.0207L26.4925 40.0784C26.8099 39.9197 27.1174 39.9991 27.3554 40.2371C27.9803 40.862 28.7639 41.4075 29.5475 41.8737C29.8649 42.0324 30.0136 42.3399 29.9343 42.6573L29.6169 44.9981Z" fill="#183651"/>
<path d="M33.7529 41.0156C37.8066 41.0156 41.0927 37.7294 41.0927 33.6758C41.0927 29.6221 37.8066 26.3359 33.7529 26.3359C29.6992 26.3359 26.4131 29.6221 26.4131 33.6758C26.4131 37.7294 29.6992 41.0156 33.7529 41.0156Z" fill="#F06151"/>
<path d="M33.7527 37.2671C35.7357 37.2671 37.3432 35.6595 37.3432 33.6765C37.3432 31.6935 35.7357 30.0859 33.7527 30.0859C31.7697 30.0859 30.1621 31.6935 30.1621 33.6765C30.1621 35.6595 31.7697 37.2671 33.7527 37.2671Z" fill="white"/>
<path d="M8.12364 13.8359H3.9082V18.0514H8.12364V13.8359Z" fill="#2CA0DA"/>
<path d="M15.9391 13.8359H11.7236V18.0514H15.9391V13.8359Z" fill="#2CA0DA"/>
<path d="M23.7555 13.8359H19.54V18.0514H23.7555V13.8359Z" fill="#2CA0DA"/>
<path d="M31.5611 13.8359H27.3457V18.0514H31.5611V13.8359Z" fill="#2CA0DA"/>
<path d="M39.3775 13.8359H35.1621V18.0514H39.3775V13.8359Z" fill="#2CA0DA"/>
<path d="M8.12364 22.8906H3.9082V27.1061H8.12364V22.8906Z" fill="#2CA0DA"/>
<path d="M15.9391 22.8906H11.7236V27.1061H15.9391V22.8906Z" fill="#2CA0DA"/>
<path d="M8.12364 32.0391H3.9082V36.2545H8.12364V32.0391Z" fill="#2CA0DA"/>
<path d="M15.9391 32.0391H11.7236V36.2545H15.9391V32.0391Z" fill="#2CA0DA"/>
<path d="M18.0525 5.00781H16.4854V6.57496H18.0525V5.00781Z" fill="#183651"/>
<path d="M22.4363 5.00781H20.8691V6.57496H22.4363V5.00781Z" fill="#183651"/>
<path d="M26.8904 5.00781H25.3232V6.57496H26.8904V5.00781Z" fill="#183651"/>
<path d="M34.6957 29.4556C34.3783 29.3762 33.9915 29.2969 33.684 29.2969C31.6507 29.2969 29.9348 30.7053 29.4686 32.6593C29.2306 33.7504 29.3892 35.0001 30.0141 35.9424C30.639 36.8847 31.5813 37.579 32.7517 37.8964C33.0691 37.9757 33.4559 38.0551 33.7634 38.0551C35.7967 38.0551 37.5126 36.726 37.8995 34.772C38.445 32.4213 37.0365 30.0011 34.6957 29.4556ZM33.7535 36.4284C32.1665 36.4284 30.887 35.139 30.887 33.5619C30.887 31.9749 32.1764 30.6954 33.7535 30.6954C35.3404 30.6954 36.62 31.9848 36.62 33.5619C36.6299 35.1489 35.3404 36.4284 33.7535 36.4284Z" fill="#183651"/>
</svg>
