<svg width="50" height="50" viewBox="0 0 50 50" fill="none" xmlns="http://www.w3.org/2000/svg">
<path d="M3.67191 15H0.78125V26.875H3.67191V15Z" fill="white"/>
<path d="M3.67192 27.6562H0.781258C0.312523 27.6562 0 27.3437 0 26.875V15C0 14.5313 0.312523 14.2188 0.781258 14.2188H3.67192C4.14066 14.2188 4.45318 14.5313 4.45318 15V26.875C4.45308 27.3437 4.0625 27.6562 3.67192 27.6562ZM1.56252 26.0937H2.89066V15.7813H1.56252V26.0937Z" fill="#183651"/>
<path d="M17.1875 13.5938H3.67188V28.2813H17.1875V13.5938Z" fill="white"/>
<path d="M17.1874 29.0626H3.67188C3.20315 29.0626 2.89062 28.7501 2.89062 28.2813V13.5938C2.89062 13.125 3.20315 12.8125 3.67188 12.8125H17.1875C17.6563 12.8125 17.9688 13.125 17.9688 13.5938V28.2812C17.9687 28.7501 17.5781 29.0626 17.1874 29.0626ZM4.45304 27.5001H16.4062V14.375H4.45304V27.5001Z" fill="#183651"/>
<path d="M14.0625 16.7188H6.79688V25.1563H14.0625V16.7188Z" fill="#F06151"/>
<path d="M40.6251 36.7969L17.1875 28.2813V13.5937L40.6251 5.07812V36.7969Z" fill="white"/>
<path d="M40.6251 37.5748C40.5469 37.5748 40.4688 37.5748 40.3907 37.4966L16.9531 28.9811C16.6406 28.9029 16.4062 28.5905 16.4062 28.2779V13.5904C16.4062 13.2778 16.6406 12.9653 16.9531 12.8873L40.3907 4.29352C40.6251 4.21537 40.8594 4.21537 41.0938 4.37168C41.3282 4.52789 41.4063 4.76226 41.4063 4.99673V36.7155C41.4063 36.9498 41.2501 37.1842 41.0938 37.3405C40.9376 37.5748 40.7813 37.5748 40.6251 37.5748ZM17.9688 27.7311L39.8438 35.6999V6.16856L17.9688 14.1374V27.7311Z" fill="#183651"/>
<path d="M20.3125 26.0938V15.7813L37.5 9.53125V32.3438L20.3125 26.0938Z" fill="#F06151"/>
<path d="M43.6719 5.07812H40.625V36.7969H43.6719V5.07812Z" fill="white"/>
<path d="M43.6719 37.5781H40.625C40.1563 37.5781 39.8438 37.2656 39.8438 36.7969V5.07813C39.8438 4.6094 40.1563 4.29688 40.625 4.29688H43.6719C44.1406 4.29688 44.4531 4.6094 44.4531 5.07813V36.7969C44.4531 37.2656 44.1406 37.5781 43.6719 37.5781ZM41.4063 36.0156H42.8906V5.85939H41.4063V36.0156Z" fill="#183651"/>
<path d="M5.54688 28.2812V44.5312H8.35938C10.5468 44.5312 12.2657 42.8125 12.2657 40.625V28.2812H5.54688Z" fill="#E0E4E8"/>
<path d="M8.28124 45.3906H5.54688C5.07815 45.3906 4.76562 45.0781 4.76562 44.6093V28.2813C4.76562 27.8125 5.07815 27.5 5.54688 27.5H12.2657C12.7344 27.5 13.0469 27.8125 13.0469 28.2813V40.625C12.9688 43.2813 10.9375 45.3906 8.28124 45.3906ZM6.32814 43.8281H8.35939C10.0781 43.8281 11.4844 42.4219 11.4844 40.703V29.0625H6.32814V43.8281Z" fill="#183651"/>
<path d="M13.9844 33.5937H12.1875V28.2812H15.2344V32.2656C15.3125 32.9687 14.6875 33.5937 13.9844 33.5937Z" fill="white"/>
<path d="M13.9844 34.375H12.1875C11.7188 34.375 11.4062 34.0625 11.4062 33.5938V28.2813C11.4062 27.8125 11.7188 27.5 12.1875 27.5H15.2344C15.7031 27.5 16.0156 27.8125 16.0156 28.2813V32.2656C16.0938 33.4374 15.1562 34.375 13.9844 34.375ZM12.9688 32.8125H13.9844C14.2969 32.8125 14.5313 32.5781 14.5313 32.2656V29.0625H13.0469V32.8125H12.9688Z" fill="#183651"/>
<path d="M43.6719 15.3906V26.4063C46.7188 26.4063 49.2187 23.9063 49.2187 20.8594C49.2187 17.8907 46.7188 15.3906 43.6719 15.3906Z" fill="#FBBD5E"/>
<path d="M43.6719 27.2657C43.2031 27.2657 42.8906 26.9532 42.8906 26.4845V15.3906C42.8906 14.9219 43.2031 14.6094 43.6719 14.6094C47.1875 14.6094 50 17.4219 50 20.9375C50 24.4531 47.1875 27.2657 43.6719 27.2657ZM44.4531 16.25V25.625C46.7188 25.2345 48.4375 23.2813 48.4375 20.9375C48.4375 18.5937 46.7188 16.6406 44.4531 16.25Z" fill="#183651"/>
<path d="M33.5938 15.5469H32.0312V17.1094H33.5938V15.5469Z" fill="#183651"/>
<path d="M33.5938 20.1562H32.0312V21.7188H33.5938V20.1562Z" fill="#183651"/>
<path d="M33.5938 24.8438H32.0312V26.4063H33.5938V24.8438Z" fill="#183651"/>
</svg>
