<svg width="22" height="31" viewBox="0 0 22 31" fill="none" xmlns="http://www.w3.org/2000/svg">
<path fill-rule="evenodd" clip-rule="evenodd" d="M11.2617 0.09375C8.42469 0.100602 5.70623 1.23245 3.70266 3.24102C1.69909 5.24958 0.574012 7.97085 0.574219 10.8079C0.574219 18.3078 10.4933 29.4674 10.9159 29.9388C10.9596 29.9876 11.0131 30.0266 11.0729 30.0532C11.1326 30.0799 11.1974 30.0938 11.2628 30.0938C11.3283 30.0938 11.393 30.0799 11.4528 30.0532C11.5125 30.0266 11.566 29.9876 11.6097 29.9388C12.0289 29.4674 21.9492 18.3075 21.9492 10.8079C21.9494 7.97085 20.8243 5.24958 18.8207 3.24102C16.8172 1.23245 14.0987 0.100602 11.2617 0.09375ZM11.2617 28.9218L10.8443 28.4253C8.65358 25.8164 1.50684 16.8378 1.50684 10.8079C1.49887 9.52162 1.74533 8.24649 2.23203 7.05586C2.71873 5.86523 3.43607 4.78261 4.34277 3.87027C5.24947 2.95793 6.32762 2.23389 7.5152 1.73982C8.70279 1.24575 9.97637 0.991388 11.2626 0.991388C12.5489 0.991388 13.8224 1.24575 15.01 1.73982C16.1976 2.23389 17.2758 2.95793 18.1825 3.87027C19.0892 4.78261 19.8065 5.86523 20.2932 7.05586C20.7799 8.24649 21.0264 9.52162 21.0184 10.8079C21.0184 16.8363 13.8706 25.8164 11.6809 28.4253L11.2617 28.9218ZM11.2617 5.68874C10.2487 5.68622 9.25771 5.9843 8.4142 6.54526C7.5707 7.10622 6.91257 7.90483 6.52316 8.84C6.13376 9.77517 6.03057 10.8049 6.22665 11.7987C6.42273 12.7926 6.90927 13.7059 7.62468 14.4231C8.34009 15.1403 9.2522 15.6291 10.2456 15.8276C11.2389 16.0262 12.2688 15.9256 13.205 15.5385C14.1411 15.1514 14.9414 14.4953 15.5044 13.6532C16.0675 12.8111 16.3681 11.8209 16.3681 10.8079C16.3682 9.45236 15.8306 8.15216 14.8733 7.19248C13.916 6.23281 12.6172 5.69202 11.2617 5.68874ZM11.2617 14.9921C10.4337 14.9941 9.62372 14.7504 8.93429 14.2918C8.24487 13.8333 7.707 13.1805 7.38875 12.4161C7.0705 11.6517 6.9862 10.8101 7.1465 9.99776C7.3068 9.18544 7.70451 8.43894 8.28928 7.85275C8.87405 7.26656 9.6196 6.86704 10.4315 6.70477C11.2435 6.5425 12.0853 6.62476 12.8505 6.94116C13.6156 7.25755 14.2697 7.79385 14.7299 8.48216C15.1902 9.17047 15.4358 9.97986 15.4358 10.8079C15.4359 11.9159 14.9965 12.9787 14.214 13.7631C13.4314 14.5475 12.3697 14.9895 11.2617 14.9921Z" fill="white"/>
</svg>
