<svg width="27" height="27" viewBox="0 0 27 27" fill="none" xmlns="http://www.w3.org/2000/svg">
<path fill-rule="evenodd" clip-rule="evenodd" d="M26.6526 10.0235C26.6514 9.99833 26.647 9.97346 26.6395 9.94944C26.6343 9.92601 26.6266 9.90317 26.6167 9.88128C26.6069 9.86563 26.5939 9.84705 26.5808 9.82976C26.5665 9.80701 26.5489 9.78647 26.5286 9.76878L26.5124 9.74889L22.2893 6.47939V3.07588C22.2885 2.74615 22.1569 2.43022 21.9233 2.1975C21.6897 1.96477 21.3733 1.8343 21.0436 1.83473H16.2858L16.2695 1.82104L14.3716 0.353582C14.1554 0.185189 13.8891 0.09375 13.615 0.09375C13.3409 0.09375 13.0747 0.185189 12.8585 0.353582L10.9443 1.83473H6.18642C5.85688 1.8349 5.54084 1.96557 5.30739 2.19816C5.07394 2.43076 4.9421 2.74634 4.94072 3.07588V6.47939L0.714461 9.75215C0.71241 9.75959 0.707776 9.76606 0.701404 9.77041C0.684078 9.78669 0.668747 9.80497 0.655745 9.82487C0.639085 9.84296 0.624834 9.86313 0.61335 9.88488C0.606828 9.90183 0.600327 9.92336 0.593805 9.9452C0.587283 9.97423 0.580745 9.99868 0.577484 10.0235L0.57422 10.0492V24.8542C0.573883 25.1177 0.659781 25.374 0.818796 25.5841L0.825324 25.5951L0.835117 25.6046C0.950679 25.7555 1.09919 25.878 1.2693 25.9628C1.43941 26.0475 1.62663 26.0923 1.81669 26.0938H25.4134C25.604 26.0929 25.7919 26.0484 25.9627 25.9636C26.1334 25.8788 26.2824 25.756 26.3982 25.6046L26.4145 25.5828C26.5735 25.3728 26.6593 25.1166 26.6591 24.8533V10.0447C26.6554 10.0382 26.6532 10.0309 26.6526 10.0235ZM13.3118 0.937954C13.3975 0.869697 13.5038 0.832534 13.6134 0.832534C13.723 0.832534 13.8293 0.869697 13.915 0.937954L15.0727 1.8344H12.1574L13.3118 0.937954ZM1.73516 25.3542L13.3118 16.3906C13.3977 16.3227 13.5039 16.2858 13.6134 16.2858C13.7229 16.2858 13.8292 16.3227 13.915 16.3906L25.4949 25.3538H1.73516V25.3542ZM25.9156 24.7427L25.8112 24.6612L14.3716 15.8066C14.1552 15.6385 13.889 15.5473 13.615 15.5473C13.341 15.5473 13.0749 15.6385 12.8585 15.8066L1.31448 24.7417V10.5729L1.42208 10.6551L8.58329 16.1989C8.6216 16.2287 8.66538 16.2506 8.71219 16.2635C8.759 16.2763 8.80789 16.2798 8.85605 16.2738C8.90422 16.2677 8.95071 16.2522 8.99287 16.2282C9.03504 16.2041 9.07205 16.172 9.10178 16.1336C9.13201 16.0954 9.15429 16.0515 9.16739 16.0045C9.18048 15.9576 9.18413 15.9084 9.17806 15.8601C9.17199 15.8117 9.15633 15.765 9.13204 15.7227C9.10775 15.6805 9.07532 15.6434 9.03658 15.6138L1.69603 9.93216L4.94072 7.41726V10.9163C4.94072 11.0149 4.97988 11.1095 5.0496 11.1792C5.11932 11.2489 5.21389 11.2881 5.31249 11.2881C5.41108 11.2881 5.50566 11.2489 5.57537 11.1792C5.64509 11.1095 5.68425 11.0149 5.68425 10.9163V3.07588C5.68451 2.94288 5.73753 2.81543 5.83169 2.72151C5.92585 2.62759 6.05342 2.57489 6.18642 2.57498H21.0436C21.1766 2.57489 21.3042 2.62759 21.3983 2.72151C21.4925 2.81543 21.5456 2.94288 21.5458 3.07588V10.9157C21.5458 11.0143 21.585 11.1088 21.6547 11.1786C21.7244 11.2483 21.819 11.2874 21.9176 11.2874C22.0162 11.2874 22.1107 11.2483 22.1804 11.1786C22.2502 11.1088 22.2893 11.0143 22.2893 10.9157V7.41661L25.534 9.93151L25.4688 9.98303L18.1804 15.6246C18.1288 15.6647 18.0885 15.7175 18.0634 15.7779C18.0382 15.8382 18.0291 15.904 18.037 15.9689C18.0455 16.0338 18.0711 16.0951 18.1112 16.1467C18.1513 16.1983 18.2045 16.2383 18.2652 16.2624C18.3265 16.2869 18.3931 16.2948 18.4583 16.2853C18.5236 16.2759 18.5852 16.2494 18.637 16.2086L25.9156 10.5746V24.743V24.7427ZM18.7935 10.4803V8.73798C18.7969 7.71304 18.4962 6.71014 17.9292 5.85627C17.3623 5.0024 16.5547 4.33597 15.6088 3.94137C14.6628 3.54677 13.621 3.44175 12.6154 3.63961C11.6097 3.83746 10.6854 4.32929 9.95943 5.05283C9.23348 5.77636 8.73857 6.69905 8.53736 7.70404C8.33614 8.70904 8.43767 9.75115 8.8291 10.6984C9.22054 11.6457 9.88426 12.4554 10.7362 13.0252C11.5882 13.595 12.5901 13.8992 13.615 13.8992C13.7132 13.8992 13.8073 13.8602 13.8768 13.7908C13.9462 13.7214 13.9851 13.6272 13.9851 13.5291C13.9851 13.4309 13.9462 13.3368 13.8768 13.2673C13.8073 13.1979 13.7132 13.1589 13.615 13.1589C12.7412 13.1562 11.8879 12.8945 11.1627 12.4071C10.4375 11.9196 9.87308 11.2282 9.54062 10.4201C9.20816 9.61204 9.12261 8.72358 9.29477 7.86692C9.46694 7.01027 9.88906 6.22384 10.5079 5.60696C11.1267 4.99008 11.9145 4.57041 12.7717 4.40096C13.6289 4.23151 14.5171 4.31988 15.3241 4.6549C16.1311 4.98992 16.8208 5.55657 17.3059 6.28329C17.7911 7.01001 18.05 7.86419 18.05 8.73798V10.4803C18.05 10.7294 17.9511 10.9683 17.7749 11.1444C17.5988 11.3206 17.3599 11.4195 17.1108 11.4195C16.8617 11.4195 16.6229 11.3206 16.4468 11.1444C16.2706 10.9683 16.1717 10.7294 16.1717 10.4803V8.73798C16.1717 8.63938 16.1325 8.54482 16.0628 8.4751C15.9931 8.40538 15.8985 8.36622 15.7999 8.36622C15.7013 8.36622 15.6068 8.40538 15.537 8.4751C15.4673 8.54482 15.4282 8.63938 15.4282 8.73798C15.4293 9.09682 15.3238 9.4479 15.1253 9.7468C14.9267 10.0457 14.6439 10.2789 14.3127 10.417C13.9815 10.5551 13.6168 10.5918 13.2647 10.5225C12.9126 10.4531 12.5891 10.2809 12.3349 10.0276C12.0808 9.77421 11.9076 9.45115 11.8371 9.09929C11.7667 8.74743 11.8023 8.38258 11.9394 8.05095C12.0765 7.71933 12.3089 7.43582 12.6071 7.23635C12.9054 7.03687 13.2562 6.9304 13.615 6.9304C13.6636 6.9304 13.7117 6.92083 13.7567 6.90222C13.8016 6.88362 13.8424 6.85635 13.8768 6.82198C13.9111 6.78761 13.9384 6.74682 13.957 6.70191C13.9756 6.65701 13.9851 6.60888 13.9851 6.56027C13.9851 6.51166 13.9756 6.46353 13.957 6.41863C13.9384 6.37372 13.9111 6.33292 13.8768 6.29855C13.8424 6.26418 13.8016 6.23692 13.7567 6.21831C13.7117 6.19971 13.6636 6.19014 13.615 6.19014H13.6085C13.1939 6.19055 12.7857 6.29209 12.4192 6.48594C12.0527 6.67979 11.739 6.96011 11.5053 7.3026C11.2716 7.64508 11.125 8.0394 11.0782 8.45136C11.0313 8.86331 11.0857 9.28047 11.2366 9.66666C11.3874 10.0529 11.6302 10.3964 11.9438 10.6676C12.2574 10.9388 12.6325 11.1294 13.0364 11.2228C13.4404 11.3163 13.861 11.3098 14.2618 11.2039C14.6627 11.0981 15.0317 10.896 15.3368 10.6153L15.4347 10.5276L15.4477 10.6581C15.4925 11.0857 15.6998 11.4799 16.0269 11.7591C16.3539 12.0383 16.7756 12.1812 17.205 12.1584C17.6344 12.1356 18.0387 11.9488 18.3343 11.6365C18.6299 11.3242 18.7943 10.9103 18.7935 10.4803Z" fill="white"/>
</svg>
