<svg width="27" height="27" viewBox="0 0 27 27" fill="none" xmlns="http://www.w3.org/2000/svg">
<path fill-rule="evenodd" clip-rule="evenodd" d="M25.8345 20.1966L20.5737 16.6782C20.258 16.4711 19.8762 16.3899 19.5036 16.4507C19.131 16.5114 18.7947 16.7096 18.5612 17.0062L17.0287 18.9823C16.9283 19.1136 16.7841 19.2045 16.6224 19.2386C16.4606 19.2726 16.2921 19.2476 16.1472 19.1679L15.8547 19.0054C14.8871 18.4766 13.6826 17.8181 11.2563 15.3837C8.83004 12.9493 8.17513 11.7435 7.64535 10.7733L7.48544 10.4807C7.40478 10.3356 7.37879 10.1664 7.41218 10.0037C7.44557 9.84104 7.53613 9.69573 7.66745 9.59409L9.63772 8.05772C9.93378 7.82252 10.1314 7.48532 10.192 7.11209C10.2526 6.73886 10.1718 6.35645 9.96534 6.03967L6.45513 0.763942C6.24324 0.442267 5.91499 0.215178 5.53926 0.130337C5.16354 0.0454951 4.76955 0.109499 4.44 0.308915L2.23994 1.63435C1.55408 2.03688 1.05171 2.69043 0.839105 3.45674C0.0493062 6.34324 0.646035 11.3268 7.97297 18.6755C12.8808 23.5979 17.3056 26.0938 21.1207 26.0938H21.1532C21.8272 26.0938 22.4983 26.0044 23.1488 25.8279C23.9141 25.614 24.5659 25.1103 24.966 24.4238L26.2885 22.2185C26.4878 21.8879 26.5519 21.4931 26.4673 21.1164C26.3827 20.7398 26.156 20.4102 25.8345 20.1966ZM25.5962 21.8061L24.2763 24.0126C23.9817 24.5203 23.5011 24.8933 22.9363 25.0527C22.339 25.2147 21.7226 25.2953 21.1038 25.2922C18.3138 25.2922 14.1935 23.776 8.53915 18.1051C1.48361 11.03 0.877133 6.34909 1.61103 3.668C1.77034 3.10152 2.14319 2.61893 2.6511 2.32176L4.85082 0.998612C5.00404 0.905745 5.1873 0.875869 5.36209 0.915264C5.53688 0.954658 5.68961 1.06025 5.78819 1.20987L9.29386 6.48527C9.38996 6.63255 9.42764 6.81037 9.39957 6.98397C9.3715 7.15757 9.27968 7.31445 9.14206 7.42393L7.17244 8.96031C6.88979 9.17929 6.69482 9.49216 6.62276 9.84237C6.55069 10.1926 6.60628 10.557 6.77949 10.8698L6.93615 11.1548C7.48869 12.1712 8.17545 13.4355 10.6849 15.9518C13.1944 18.4681 14.4526 19.1559 15.4653 19.7097L15.7523 19.8683C16.0643 20.0419 16.4282 20.0976 16.7779 20.0253C17.1275 19.953 17.4394 19.7575 17.6569 19.4744L19.1891 17.4992C19.2978 17.3616 19.4541 17.2696 19.6272 17.2414C19.8004 17.2133 19.9778 17.251 20.1245 17.3471L25.3856 20.8655C25.5354 20.9647 25.641 21.118 25.6803 21.2934C25.7195 21.4687 25.6894 21.6524 25.5962 21.8061ZM15.2703 4.37492C17.233 4.383 19.1127 5.16767 20.4986 6.55747C21.8845 7.94727 22.6639 9.82917 22.6665 11.7919C22.665 11.8455 22.6742 11.8988 22.6936 11.9487C22.7131 11.9986 22.7423 12.0442 22.7797 12.0826C22.817 12.121 22.8617 12.1516 22.9111 12.1724C22.9604 12.1933 23.0135 12.204 23.0671 12.204C23.1207 12.204 23.1737 12.1933 23.2231 12.1724C23.2724 12.1516 23.3171 12.121 23.3545 12.0826C23.3918 12.0442 23.4211 11.9986 23.4405 11.9487C23.46 11.8988 23.4692 11.8455 23.4677 11.7919C23.4647 9.6167 22.6008 7.53113 21.0648 5.99097C19.5287 4.45081 17.4455 3.58129 15.2703 3.57245C15.1673 3.57753 15.0702 3.62201 14.9991 3.6967C14.928 3.77139 14.8884 3.87057 14.8884 3.97369C14.8884 4.0768 14.928 4.17597 14.9991 4.25066C15.0702 4.32535 15.1673 4.36984 15.2703 4.37492ZM15.2703 6.98125C16.5433 6.98658 17.7624 7.4955 18.6612 8.39683C19.5601 9.29816 20.0658 10.5186 20.0676 11.7916C20.0676 11.8978 20.1098 11.9998 20.185 12.0749C20.2601 12.1501 20.3621 12.1923 20.4684 12.1923C20.5747 12.1923 20.6766 12.1501 20.7518 12.0749C20.8269 11.9998 20.8691 11.8978 20.8691 11.7916C20.8669 10.3059 20.2768 8.88151 19.2278 7.82953C18.1787 6.77756 16.756 6.18351 15.2703 6.17715C15.1637 6.17715 15.0614 6.21951 14.986 6.29491C14.9106 6.37031 14.8683 6.47257 14.8683 6.5792C14.8683 6.68583 14.9106 6.7881 14.986 6.8635C15.0614 6.9389 15.1637 6.98125 15.2703 6.98125ZM15.2703 9.58727C15.8537 9.58976 16.4123 9.82304 16.8242 10.2361C17.236 10.6492 17.4677 11.2085 17.4684 11.7919C17.4669 11.8455 17.4762 11.8989 17.4956 11.9488C17.5151 11.9988 17.5444 12.0444 17.5817 12.0828C17.6191 12.1213 17.6638 12.1519 17.7132 12.1727C17.7626 12.1936 17.8157 12.2044 17.8693 12.2044C17.923 12.2044 17.9761 12.1936 18.0255 12.1727C18.0749 12.1519 18.1196 12.1213 18.157 12.0828C18.1943 12.0444 18.2236 11.9988 18.2431 11.9488C18.2625 11.8989 18.2718 11.8455 18.2703 11.7919C18.269 10.9959 17.9528 10.2328 17.3907 9.66915C16.8286 9.10554 16.0663 8.78726 15.2703 8.78382C15.1638 8.78382 15.0616 8.82614 14.9863 8.90148C14.9109 8.97682 14.8686 9.079 14.8686 9.18555C14.8686 9.29209 14.9109 9.39427 14.9863 9.46961C15.0616 9.54495 15.1638 9.58727 15.2703 9.58727Z" fill="white"/>
</svg>
