<svg xmlns="http://www.w3.org/2000/svg" width="110" height="103" viewBox="0 0 110 103" fill="none"><circle cx="60" cy="53" r="50" fill="#F8DED8"></circle><ellipse cx="80.5" cy="88.5" rx="2.5" ry="3.5" fill="white"></ellipse><ellipse cx="103" cy="4" rx="3" ry="4" fill="#E9BD48"></ellipse><ellipse cx="3" cy="78" rx="3" ry="4" fill="#E9BD48"></ellipse><ellipse cx="94.5" cy="3.5" rx="0.5" ry="1.5" fill="#90AD58"></ellipse><ellipse cx="104.5" cy="26.5" rx="0.5" ry="1.5" fill="#90AD58"></ellipse><ellipse cx="10.5" cy="83.5" rx="0.5" ry="1.5" fill="#DF505A"></ellipse><ellipse cx="10" cy="13" rx="1" ry="2" fill="#DF505A"></ellipse><path d="M60.5 44.2329C62.3866 44.2329 63.916 43.0907 63.916 41.6816C63.916 40.2726 62.3866 39.1304 60.5 39.1304C58.6134 39.1304 57.084 40.2726 57.084 41.6816C57.084 43.0907 58.6134 44.2329 60.5 44.2329Z" fill="#FFC144"></path><path fill-rule="evenodd" clip-rule="evenodd" d="M60.5 44.2328C62.3866 44.2328 63.916 43.0906 63.916 41.6815C63.916 40.2724 62.3866 39.1302 60.5 39.1302C58.6134 39.1302 57.084 40.2724 57.084 41.6815C57.084 43.0906 58.6133 44.2328 60.5 44.2328ZM57.5083 54.8129C51.7422 51.946 46.4031 49.2914 40.832 46.5214C39.1845 45.7023 37.5166 44.873 35.8113 44.0251C35.5416 43.8918 35.3121 43.6675 35.1718 43.3694C35.0785 43.1712 35.0346 42.9619 35.0352 42.7557C35.0347 42.5496 35.0786 42.3401 35.1718 42.142C35.3121 41.8439 35.5415 41.6196 35.8113 41.4863C43.2827 37.7717 50.037 34.4134 57.5083 30.6987C59.7434 29.5874 61.2566 29.5874 63.4916 30.6987C70.963 34.4134 77.7172 37.7717 85.1886 41.4864C85.4585 41.6197 85.6878 41.844 85.8281 42.1421C85.9214 42.3403 85.9653 42.5497 85.9647 42.7558C85.9652 42.962 85.9214 43.1714 85.8281 43.3695C85.6878 43.6676 85.4585 43.8919 85.1886 44.0252C83.4834 44.8731 81.8155 45.7023 80.168 46.5215C78.4974 47.3521 76.8478 48.1724 75.2012 48.9909C71.3565 50.9025 67.5288 52.8057 63.4917 54.8129C61.2566 55.9242 59.7434 55.9242 57.5083 54.8129Z" fill="#6D91AC"></path><path fill-rule="evenodd" clip-rule="evenodd" d="M63.4917 54.8128C67.5288 52.8056 71.3566 50.9025 75.2012 48.9909C76.8478 48.1722 78.4974 47.3521 80.168 46.5215V60.0594C80.168 61.9184 78.7791 63.6375 76.4253 65.0347C76.0818 64.7718 75.6582 64.6162 75.2012 64.6162C74.1309 64.6162 73.2436 65.4703 73.1409 66.5541C69.7224 67.7917 65.3136 68.5375 60.5 68.5375C49.6377 68.5375 40.832 64.7418 40.832 60.0594V46.5215C46.4031 49.2915 51.7422 51.946 57.5083 54.813C59.7435 55.9242 61.2567 55.9242 63.4917 54.8128Z" fill="#8AA7BD"></path><path fill-rule="evenodd" clip-rule="evenodd" d="M73.1409 66.5541C73.2437 65.4703 74.131 64.6162 75.2013 64.6162C75.6582 64.6162 76.0819 64.7719 76.4252 65.0347C76.9376 65.4268 77.2715 66.0572 77.2715 66.7646V73.21H73.1309V66.7646C73.131 66.6935 73.1343 66.6233 73.1409 66.5541Z" fill="#FFC144"></path><path d="M86.7583 41.6707C86.5216 41.1675 86.1221 40.7576 85.6359 40.5175L63.939 29.7298C61.432 28.4833 59.5679 28.4834 57.0611 29.7298L35.3665 40.5162C34.8778 40.7576 34.4782 41.1675 34.2417 41.6705C34.0807 42.0122 33.9995 42.3773 34 42.7558C33.9995 43.134 34.0808 43.499 34.2416 43.8408C34.4782 44.3437 34.8776 44.7536 35.364 44.994L39.7969 47.198V60.0594C39.7969 62.7863 42.0694 65.2676 46.1955 67.0463C50.0332 68.7005 55.1133 69.6116 60.5 69.6116C64.6473 69.6116 68.7058 69.0524 72.0957 68.0264V72.9221L70.4361 75.9052C70.1501 76.419 70.3198 77.0759 70.8149 77.3726C70.978 77.4702 71.1559 77.5167 71.3316 77.5167C71.6893 77.5167 72.0372 77.324 72.229 76.9794L73.7285 74.2841H74.166V77.1307C74.166 77.7239 74.6295 78.205 75.2012 78.205C75.7729 78.205 76.2364 77.7239 76.2364 77.1307V74.2841H76.6739L78.1734 76.9794C78.3652 77.324 78.7131 77.5167 79.0708 77.5167C79.2464 77.5167 79.4244 77.4702 79.5875 77.3726C80.0826 77.0759 80.2522 76.419 79.9663 75.9052L78.3067 72.9221V66.7645C78.3067 66.2366 78.1829 65.7383 77.9651 65.2981C80.0885 63.774 81.2031 61.9794 81.2031 60.0594V47.1979L85.6337 44.995C86.1224 44.7535 86.5218 44.3436 86.7583 43.8408C86.9195 43.4983 87.0008 43.1323 86.9999 42.7581C87.0007 42.3789 86.9194 42.0129 86.7583 41.6707ZM46.9898 65.0622C43.7343 63.659 41.8672 61.8355 41.8672 60.0594V58.3762C43.1544 59.8184 45.0114 61.124 47.3572 62.1969C47.4931 62.2589 47.6347 62.2884 47.7741 62.2884C48.1718 62.2884 48.5512 62.0489 48.7219 61.647C48.9524 61.1041 48.7153 60.47 48.1921 60.2307C44.1927 58.4019 41.8874 55.9628 41.8673 53.5391C41.8673 53.5384 41.8672 53.5379 41.8672 53.5373V48.2273L57.061 55.7815C58.3146 56.4049 59.4071 56.7164 60.5 56.7164C61.5926 56.7163 62.6856 56.4047 63.939 55.7815L74.166 50.6967V63.7266C73.274 64.0549 72.5689 64.7947 72.2624 65.7251C68.9231 66.8469 64.7712 67.4632 60.5 67.4632C55.3796 67.4632 50.5816 66.6105 46.9898 65.0622ZM76.2364 72.1356H74.166V66.7645C74.166 66.1722 74.6304 65.6903 75.2012 65.6903C75.772 65.6903 76.2364 66.1722 76.2364 66.7645V72.1356ZM79.1328 60.0594C79.1328 61.3201 78.1686 62.633 76.4044 63.7937C76.3492 63.7695 76.2931 63.7475 76.2364 63.7266V49.6674L79.1328 48.2272V60.0594ZM84.8978 42.8981C84.8568 42.9853 84.7913 43.0317 84.7413 43.0564L75.2012 47.7997L64.8025 42.6296C64.8991 42.3283 64.9512 42.0109 64.9512 41.6815C64.9512 39.6486 62.996 38.056 60.5 38.056C58.004 38.056 56.0488 39.6486 56.0488 41.6815C56.0488 43.7145 58.004 45.307 60.5 45.307C61.673 45.307 62.7265 44.9552 63.5139 44.3713L72.8054 48.9909L63.0443 53.8441C61.0945 54.8135 59.9055 54.8135 57.9556 53.8441L36.2563 43.0554C36.2086 43.0317 36.143 42.9853 36.102 42.898C36.0809 42.8531 36.0702 42.8061 36.0703 42.7581C36.0703 42.7565 36.0703 42.7549 36.0703 42.7533C36.0702 42.7054 36.0809 42.6583 36.1021 42.6133C36.1431 42.5261 36.2085 42.4798 36.2586 42.455L57.9556 31.6673C58.9305 31.1825 59.7153 30.9401 60.4999 30.9401C61.2847 30.9401 62.0694 31.1825 63.0443 31.6673L84.7438 42.4564C84.7914 42.4799 84.8568 42.5262 84.898 42.6136C84.9191 42.6584 84.9297 42.7054 84.9296 42.7582C84.9297 42.8061 84.919 42.8531 84.8978 42.8981ZM60.5 43.1585C59.097 43.1585 58.1191 42.3801 58.1191 41.6814C58.1191 40.9828 59.097 40.2044 60.5 40.2044C61.9031 40.2044 62.8809 40.9828 62.8809 41.6814C62.8809 42.3801 61.9031 43.1585 60.5 43.1585Z" fill="black"></path><path d="M52.1841 61.7017C51.6124 61.7017 51.1489 62.1827 51.1489 62.7759C51.1489 63.3691 51.6124 63.8501 52.1841 63.8501H52.1848C52.7565 63.8501 53.2196 63.3691 53.2196 62.7759C53.2196 62.1827 52.7558 61.7017 52.1841 61.7017Z" fill="black"></path></svg>