<svg xmlns="http://www.w3.org/2000/svg" width="109" height="103" viewBox="0 0 109 103" fill="none"><ellipse cx="58" cy="51.04" rx="51" ry="51.04" fill="#FFF1C7"></ellipse><path fill-rule="evenodd" clip-rule="evenodd" d="M52 62H64V70.1503C63.3964 72.9238 60.9395 75 58 75C55.0601 75 52.6032 72.9238 52 70.1503V62Z" fill="#67E5DD"></path><path fill-rule="evenodd" clip-rule="evenodd" d="M58 34C65.1795 34 71 39.4001 71 46.0618C71 54.415 64.3928 57.1317 64.3928 60.702C64.3928 61.1606 64.3714 61.5927 64.3306 62H51.669C51.6286 61.5927 51.6072 61.1606 51.6072 60.702C51.6072 57.1317 45 54.415 45 46.0618C45 39.4001 50.8201 34 58 34Z" fill="#FEC96B"></path><path fill-rule="evenodd" clip-rule="evenodd" d="M57.7413 33C51.5764 33 46.1354 36.5958 44.2011 41.9478C44.0189 42.4516 44.318 42.9952 44.8687 43.1619C45.4198 43.3286 46.0139 43.0553 46.1957 42.5511C47.8448 37.9878 52.4845 34.9222 57.7413 34.9222C64.4449 34.9222 69.8991 39.9119 69.8991 46.0455C69.8991 50.786 67.5782 53.6181 65.7137 55.8939C64.3571 57.5492 63.1856 58.9791 63.1856 60.7132C63.1856 60.8277 63.184 60.9404 63.1811 61.0526H58.7917V58.8447C58.7917 58.3139 58.3215 57.8837 57.7413 57.8837C57.1611 57.8837 56.6908 58.3139 56.6908 58.8447V61.0526H52.3011C52.2982 60.9404 52.2966 60.8273 52.2966 60.7132C52.2966 58.9788 51.1251 57.5492 49.7689 55.8936C48.3955 54.2173 46.8387 52.3173 46.0669 49.6176C45.92 49.1041 45.3459 48.7966 44.785 48.931C44.2236 49.0654 43.8876 49.5906 44.0345 50.1042C44.9105 53.1688 46.6721 55.3188 48.0878 57.0465C49.2654 58.484 50.1956 59.6196 50.1956 60.7132C50.1956 61.1735 50.217 61.6229 50.2584 62.0508V70.1802C50.2584 70.2061 50.2605 70.2313 50.2629 70.2564C50.2634 70.2628 50.2629 70.2688 50.2638 70.2752C50.2675 70.3105 50.2736 70.3454 50.2814 70.3796V70.3796C50.6458 71.9451 51.5801 73.3694 52.9121 74.3887C54.2695 75.4279 55.9846 76 57.7413 76C59.4979 76 61.2127 75.4279 62.5705 74.3887C63.902 73.3694 64.8364 71.9458 65.2008 70.3803L65.2012 70.3792C65.209 70.345 65.2147 70.3105 65.2188 70.2748C65.2192 70.2688 65.2192 70.2624 65.2196 70.2564C65.2217 70.2309 65.2237 70.2057 65.2237 70.1798V62.0508C65.2652 61.6225 65.2869 61.1735 65.2869 60.7132C65.2869 59.6192 66.2172 58.484 67.3948 57.0465C69.3382 54.6746 72 51.4264 72 46.0455C72 38.8521 65.6037 33 57.7413 33ZM52.3593 67.0578H63.1232V69.2188H52.3593V67.0578ZM63.1232 65.1357H52.3593V62.9748H63.1232V65.1357ZM57.7413 74.0778C55.6055 74.0778 53.6794 72.896 52.7668 71.1409H62.7158C61.8028 72.896 59.8767 74.0778 57.7413 74.0778Z" fill="black"></path><path fill-rule="evenodd" clip-rule="evenodd" d="M58 31C58.5523 31 59 30.6161 59 30.1425V27.8575C59 27.3839 58.5523 27 58 27C57.4477 27 57 27.3839 57 27.8575V30.1425C57 30.6161 57.4477 31 58 31Z" fill="black"></path><path fill-rule="evenodd" clip-rule="evenodd" d="M39.3568 45H37.6432C37.2879 45 37 45.4477 37 46C37 46.5523 37.2879 47 37.6432 47H39.3568C39.7121 47 40 46.5523 40 46C40 45.4477 39.7121 45 39.3568 45Z" fill="black"></path><path fill-rule="evenodd" clip-rule="evenodd" d="M62 47.9439C62 47.4225 61.6089 47 61.1264 47H54.8736C54.3911 47 54 47.4225 54 47.9439C54 48.4652 54.3911 48.8878 54.8736 48.8878H57.1264V51.0561C57.1264 51.5775 57.5174 52 58 52C58.4826 52 58.8736 51.5775 58.8736 51.0561V48.8878H61.1264C61.6089 48.8878 62 48.4652 62 47.9439Z" fill="black"></path><path fill-rule="evenodd" clip-rule="evenodd" d="M44.1211 35.6983C44.2216 35.8994 44.3534 36 44.4851 36C44.6169 36 44.7486 35.8994 44.8492 35.6983C45.0503 35.296 45.0503 34.6439 44.8492 34.242L43.8789 32.3017C43.678 31.8994 43.352 31.8994 43.1508 32.3017C42.9497 32.7036 42.9497 33.3557 43.1508 33.758L44.1211 35.6983Z" fill="black"></path><path fill-rule="evenodd" clip-rule="evenodd" d="M43.121 57.3017L42.1507 59.242C41.9498 59.6443 41.9498 60.2964 42.1507 60.6983C42.2513 60.8994 42.383 61 42.515 61C42.6467 61 42.7785 60.8994 42.879 60.6983L43.8491 58.758C44.0503 58.3557 44.0503 57.704 43.8491 57.3017C43.648 56.8994 43.322 56.8994 43.121 57.3017Z" fill="black"></path><path fill-rule="evenodd" clip-rule="evenodd" d="M71.515 36C71.6467 36 71.7785 35.8994 71.879 35.6983L72.8491 33.7582C73.0503 33.3559 73.0503 32.7038 72.8491 32.3016C72.6482 31.8993 72.3221 31.8997 72.121 32.3016L71.1509 34.2417C70.9497 34.644 70.9497 35.296 71.1507 35.6983C71.2513 35.8994 71.3832 36 71.515 36Z" fill="black"></path><path fill-rule="evenodd" clip-rule="evenodd" d="M72.879 57.3017C72.6781 56.8994 72.352 56.8994 72.1509 57.3017C71.9497 57.7036 71.9497 58.3557 72.1509 58.758L73.121 60.6983C73.2216 60.8994 73.3533 61 73.4851 61C73.6168 61 73.7486 60.8994 73.8491 60.6983C74.0503 60.2964 74.0503 59.6443 73.8491 59.242L72.879 57.3017Z" fill="black"></path><path fill-rule="evenodd" clip-rule="evenodd" d="M78.3568 45H76.6432C76.2879 45 76 45.4477 76 46C76 46.5523 76.2879 47 76.6432 47H78.3568C78.7121 47 79 46.5523 79 46C79 45.4477 78.7121 45 78.3568 45Z" fill="black"></path><path fill-rule="evenodd" clip-rule="evenodd" d="M58 54C57.4492 54 57 54.4492 57 55C57 55.5508 57.4492 56 58 56C58.5508 56 59 55.5508 59 55C59 54.4492 58.5508 54 58 54Z" fill="black"></path><path fill-rule="evenodd" clip-rule="evenodd" d="M44.5 47C44.7754 47 45 46.5508 45 46C45 45.4492 44.7754 45 44.5 45C44.2244 45 44 45.4492 44 46C44 46.5508 44.2244 47 44.5 47Z" fill="black"></path><ellipse cx="80.5" cy="88.5" rx="2.5" ry="3.5" fill="white"></ellipse><ellipse cx="103" cy="4" rx="3" ry="4" fill="#E9BD48"></ellipse><ellipse cx="3" cy="78" rx="3" ry="4" fill="#E9BD48"></ellipse><ellipse cx="94.5" cy="3.5" rx="0.5" ry="1.5" fill="#E9BD48"></ellipse><ellipse cx="104.5" cy="26.5" rx="0.5" ry="1.5" fill="#E9BD48"></ellipse><ellipse cx="10.5" cy="83.5" rx="0.5" ry="1.5" fill="#DF505A"></ellipse><ellipse cx="10" cy="13" rx="1" ry="2" fill="#DF505A"></ellipse></svg>