<svg xmlns="http://www.w3.org/2000/svg" width="108" height="106" viewBox="0 0 108 106" fill="none"><circle cx="58" cy="56" r="50" fill="#F6F1FE"></circle><circle cx="81.5" cy="88.5" r="3.5" fill="white"></circle><circle cx="104" cy="4" r="4" fill="#E9BD48"></circle><circle cx="4" cy="78" r="4" fill="#E9BD48"></circle><circle cx="95.5" cy="3.5" r="1.5" fill="#E9BD48"></circle><circle cx="105.5" cy="26.5" r="1.5" fill="#8B8BF0"></circle><circle cx="11.5" cy="83.5" r="1.5" fill="#8B8BF0"></circle><circle cx="11" cy="13" r="2" fill="#DF505A"></circle><path d="M48.3457 44.5443V40.3299C48.3457 38.2918 49.9979 36.6396 52.036 36.6396H62.9637C65.0018 36.6396 66.654 38.2918 66.654 40.3299V44.5443" fill="white"></path><path d="M48.3457 44.5443V40.3299C48.3457 38.2918 49.9979 36.6396 52.036 36.6396H62.9637C65.0018 36.6396 66.654 38.2918 66.654 40.3299V44.5443C66.654 44.5442 48.3457 44.5442 48.3457 44.5443Z" fill="#ADE5FF"></path><path d="M63.1391 40.1548H51.8618V44.5438H63.1391V40.1548Z" fill="white"></path><path d="M75.6055 76.3604H39.3945C37.4529 76.3604 35.8789 74.7863 35.8789 72.8447V48.0596C35.8789 46.118 37.4529 44.5439 39.3945 44.5439H75.6055C77.5471 44.5439 79.1211 46.118 79.1211 48.0596V72.8447C79.1211 74.7863 77.5471 76.3604 75.6055 76.3604Z" fill="#B5B5FF"></path><path d="M75.6055 44.5439H39.3945C37.4529 44.5439 35.8789 46.118 35.8789 48.0596V57.1235H79.1211V48.0596C79.1211 46.1178 77.5471 44.5439 75.6055 44.5439Z" fill="#2EDEDE"></path><path d="M48.9177 55.3545H43.7407C43.5951 55.3545 43.4771 55.4725 43.4771 55.6182V59.4428C43.4771 60.9476 44.6969 62.1674 46.2017 62.1674H46.4567C47.9615 62.1674 49.1813 60.9476 49.1813 59.4428V55.6182C49.1813 55.4724 49.0633 55.3545 48.9177 55.3545Z" fill="white"></path><path d="M71.259 55.3545H66.082C65.9364 55.3545 65.8184 55.4725 65.8184 55.6182V59.4428C65.8184 60.9476 67.0382 62.1674 68.543 62.1674H68.798C70.3028 62.1674 71.5226 60.9476 71.5226 59.4428V55.6182C71.5226 55.4724 71.4046 55.3545 71.259 55.3545Z" fill="white"></path><path d="M79.1211 62.3008C78.8899 62.3008 78.6632 62.3947 78.4997 62.5583C78.3362 62.7219 78.2422 62.9485 78.2422 63.1797C78.2422 63.4108 78.3361 63.6376 78.4997 63.801C78.6632 63.9645 78.8899 64.0586 79.1211 64.0586C79.3522 64.0586 79.579 63.9646 79.7424 63.801C79.906 63.6376 80 63.4108 80 63.1797C80 62.9485 79.906 62.7218 79.7424 62.5583C79.579 62.3947 79.3522 62.3008 79.1211 62.3008Z" fill="black"></path><path d="M75.6055 43.6654H67.5331V40.3299C67.5331 37.8104 65.4834 35.7607 62.9639 35.7607H52.0361C49.5166 35.7607 47.4669 37.8104 47.4669 40.3299V43.6654H39.3945C36.9714 43.6654 35 45.6367 35 48.0599V72.845C35 75.2682 36.9714 77.2396 39.3945 77.2396H75.6055C78.0286 77.2396 80 75.2682 80 72.845V66.7833C80 66.298 79.6064 65.9044 79.1211 65.9044C78.6358 65.9044 78.2422 66.298 78.2422 66.7833V72.845C78.2422 74.2989 77.0594 75.4818 75.6055 75.4818H39.3945C37.9998 75.4818 36.8552 74.393 36.7643 73.0208H48.3886C48.874 73.0208 49.2675 72.6273 49.2675 72.1419C49.2675 71.6566 48.874 71.263 48.3886 71.263H36.7578V56.9963C37.5494 57.6255 38.5499 58.0027 39.6374 58.0027H42.5982V59.4431C42.5982 61.4301 44.2148 63.0466 46.2017 63.0466H46.4568C48.4437 63.0466 50.0603 61.4301 50.0603 59.4431V58.0027H64.9396V59.4431C64.9396 61.4301 66.5562 63.0466 68.5431 63.0466H68.7982C70.7851 63.0466 72.4017 61.4301 72.4017 59.4431V58.0027H75.3625C76.45 58.0027 77.4504 57.6255 78.2421 56.9963V59.7593C78.2421 60.2446 78.6357 60.6382 79.121 60.6382C79.6063 60.6382 79.9999 60.2446 79.9999 59.7593V48.0599C80 45.6366 78.0286 43.6654 75.6055 43.6654ZM49.2247 40.3299C49.2247 38.7797 50.486 37.5186 52.0361 37.5186H62.9639C64.5141 37.5186 65.7753 38.7798 65.7753 40.3299V43.6654H64.0174V40.1552C64.0174 39.6699 63.6239 39.2763 63.1385 39.2763H51.8615C51.3761 39.2763 50.9826 39.6699 50.9826 40.1552V43.6654H49.2247V40.3299ZM52.7404 43.6654V41.0341H62.2597V43.6654C62.2597 43.6653 52.7404 43.6653 52.7404 43.6654ZM48.3026 59.443C48.3026 60.4607 47.4746 61.2887 46.4569 61.2887H46.2018C45.1842 61.2887 44.3561 60.4607 44.3561 59.443V56.2336H48.3026V59.443ZM70.644 59.443C70.644 60.4607 69.8159 61.2887 68.7983 61.2887H68.5432C67.5255 61.2887 66.6975 60.4607 66.6975 59.443V56.2336H70.644V59.443ZM75.3626 56.2448H72.4018V55.6184C72.4018 54.9884 71.8892 54.4758 71.2592 54.4758H66.0823C65.4523 54.4758 64.9397 54.9884 64.9397 55.6184V56.2448H50.0604V55.6184C50.0604 54.9884 49.5478 54.4758 48.9178 54.4758H43.7408C43.1108 54.4758 42.5982 54.9884 42.5982 55.6184V56.2448H39.6374C38.0495 56.2448 36.7578 54.953 36.7578 53.3652V48.0598C36.7578 46.6059 37.9406 45.4231 39.3945 45.4231H75.6055C77.0594 45.4231 78.2422 46.6059 78.2422 48.0598V53.3652C78.2422 54.953 76.9505 56.2448 75.3626 56.2448Z" fill="black"></path><path d="M51.8457 71.2627C51.3604 71.2627 50.9668 71.6563 50.9668 72.1416C50.9668 72.6269 51.3604 73.0205 51.8457 73.0205H51.8598C52.3451 73.0205 52.7387 72.6269 52.7387 72.1416C52.7387 71.6563 52.3451 71.2627 51.8598 71.2627H51.8457Z" fill="black"></path></svg>