<svg width="31" height="31" viewBox="0 0 31 31" fill="none" xmlns="http://www.w3.org/2000/svg">
<path d="M27.3095 14.7619H25.0952V8.85714C25.0952 7.23333 23.7667 5.90476 22.1429 5.90476H16.2381V3.69048C16.2381 1.65333 14.5848 0 12.5476 0C10.5105 0 8.85714 1.65333 8.85714 3.69048V5.90476H2.95238C1.32857 5.90476 0.0147619 7.23333 0.0147619 8.85714V14.4667H2.21429C4.41381 14.4667 6.2 16.2529 6.2 18.4524C6.2 20.6519 4.41381 22.4381 2.21429 22.4381H0V28.0476C0 29.6714 1.32857 31 2.95238 31H8.5619V28.7857C8.5619 26.5862 10.3481 24.8 12.5476 24.8C14.7471 24.8 16.5333 26.5862 16.5333 28.7857V31H22.1429C23.7667 31 25.0952 29.6714 25.0952 28.0476V22.1429H27.3095C29.3467 22.1429 31 20.4895 31 18.4524C31 16.4152 29.3467 14.7619 27.3095 14.7619Z" fill="url(#paint0_linear_2704_1897)"/>
<defs>
<linearGradient id="paint0_linear_2704_1897" x1="5.51111" y1="4.13333" x2="25.3167" y2="28.5889" gradientUnits="userSpaceOnUse">
<stop stop-color="#95E294"/>
<stop offset="1" stop-color="#0ACD88"/>
</linearGradient>
</defs>
</svg>
