<svg width="30" height="32" viewBox="0 0 30 32" fill="none" xmlns="http://www.w3.org/2000/svg">
<path fill-rule="evenodd" clip-rule="evenodd" d="M26.0613 3.16049H19.4559C18.7922 1.32741 17.0539 0 14.9996 0C12.9452 0 11.207 1.32741 10.5433 3.16049H3.93784C2.19957 3.16049 0.777344 4.58272 0.777344 6.32099V28.4444C0.777344 30.1827 2.19957 31.6049 3.93784 31.6049H26.0613C27.7996 31.6049 29.2218 30.1827 29.2218 28.4444V6.32099C29.2218 4.58272 27.7996 3.16049 26.0613 3.16049ZM15 3.16059C15.8691 3.16059 16.5802 3.8717 16.5802 4.74084C16.5802 5.60997 15.8691 6.32108 15 6.32108C14.1308 6.32108 13.4197 5.60997 13.4197 4.74084C13.4197 3.8717 14.1308 3.16059 15 3.16059ZM5.5178 18.9634L11.8388 25.2844L24.4808 12.6424L22.2526 10.3984L11.8388 20.8123L7.74594 16.7352L5.5178 18.9634Z" fill="url(#paint0_linear_2704_1926)"/>
<defs>
<linearGradient id="paint0_linear_2704_1926" x1="5.83413" y1="4.21399" x2="26.3625" y2="27.0272" gradientUnits="userSpaceOnUse">
<stop stop-color="#72CFFF"/>
<stop offset="1" stop-color="#1595FF"/>
</linearGradient>
</defs>
</svg>
