<svg width="32" height="32" viewBox="0 0 32 32" fill="none" xmlns="http://www.w3.org/2000/svg">
<path fill-rule="evenodd" clip-rule="evenodd" d="M14.0704 19.9643C12.2568 19.3076 10.9436 17.5879 10.9436 15.5556C10.9436 13.5232 12.2568 11.8035 14.0704 11.1468V0C6.17532 0.781686 0 7.44165 0 15.5556C0 23.6695 6.17532 30.3294 14.0704 31.1111V19.9643ZM17.197 11.1468C18.5259 11.6159 19.5577 12.6633 20.0424 13.9922H31.1892C30.4544 6.61307 24.5762 0.734785 17.197 0V11.1468ZM17.197 19.9643C18.5259 19.4796 19.5734 18.4478 20.0424 17.1189H31.1892C30.4544 24.498 24.5762 30.3763 17.197 31.1111V19.9643Z" fill="url(#paint0_linear_2704_1918)"/>
<defs>
<linearGradient id="paint0_linear_2704_1918" x1="5.54475" y1="4.14815" x2="25.4109" y2="28.7401" gradientUnits="userSpaceOnUse">
<stop stop-color="#FFB867"/>
<stop offset="1" stop-color="#FF675E"/>
</linearGradient>
</defs>
</svg>
